<svg width="16" height="16" viewBox="0 0 16 16" fill="none" xmlns="http://www.w3.org/2000/svg">
<path d="M2.66675 2.83325C2.66675 2.43543 2.82478 2.0539 3.10609 1.77259C3.38739 1.49129 3.76892 1.33325 4.16675 1.33325H7.00275V4.49859C7.00275 4.69557 7.04155 4.89062 7.11693 5.07261C7.19231 5.2546 7.3028 5.41996 7.44209 5.55925C7.72339 5.84055 8.10492 5.99859 8.50275 5.99859H11.6667V11.4999C11.6667 11.8977 11.5087 12.2793 11.2274 12.5606C10.9461 12.8419 10.5646 12.9999 10.1667 12.9999H4.16675C3.76892 12.9999 3.38739 12.8419 3.10609 12.5606C2.82478 12.2793 2.66675 11.8977 2.66675 11.4999V2.83325ZM5.16675 7.66659C5.03414 7.66659 4.90696 7.71926 4.81319 7.81303C4.71943 7.9068 4.66675 8.03398 4.66675 8.16659C4.66675 8.29919 4.71943 8.42637 4.81319 8.52014C4.90696 8.61391 5.03414 8.66659 5.16675 8.66659C5.29936 8.66659 5.42653 8.61391 5.5203 8.52014C5.61407 8.42637 5.66675 8.29919 5.66675 8.16659C5.66675 8.03398 5.61407 7.9068 5.5203 7.81303C5.42653 7.71926 5.29936 7.66659 5.16675 7.66659ZM4.66675 10.1666C4.66675 10.2992 4.71943 10.4264 4.81319 10.5201C4.90696 10.6139 5.03414 10.6666 5.16675 10.6666C5.29936 10.6666 5.42653 10.6139 5.5203 10.5201C5.61407 10.4264 5.66675 10.2992 5.66675 10.1666C5.66675 10.034 5.61407 9.9068 5.5203 9.81303C5.42653 9.71926 5.29936 9.66659 5.16675 9.66659C5.03414 9.66659 4.90696 9.71926 4.81319 9.81303C4.71943 9.9068 4.66675 10.034 4.66675 10.1666ZM6.66675 8.16659C6.66675 8.44259 6.89075 8.66659 7.16675 8.66659H9.20275C9.33536 8.66659 9.46253 8.61391 9.5563 8.52014C9.65007 8.42637 9.70275 8.29919 9.70275 8.16659C9.70275 8.03398 9.65007 7.9068 9.5563 7.81303C9.46253 7.71926 9.33536 7.66659 9.20275 7.66659H7.16675C7.03414 7.66659 6.90696 7.71926 6.8132 7.81303C6.71943 7.9068 6.66675 8.03398 6.66675 8.16659ZM7.16675 9.66659C7.03414 9.66659 6.90696 9.71926 6.8132 9.81303C6.71943 9.9068 6.66675 10.034 6.66675 10.1666C6.66675 10.2992 6.71943 10.4264 6.8132 10.5201C6.90696 10.6139 7.03414 10.6666 7.16675 10.6666H9.20275C9.33536 10.6666 9.46253 10.6139 9.5563 10.5201C9.65007 10.4264 9.70275 10.2992 9.70275 10.1666C9.70275 10.034 9.65007 9.9068 9.5563 9.81303C9.46253 9.71926 9.33536 9.66659 9.20275 9.66659H7.16675Z" fill="#FED33D"/>
<path d="M8.00277 1.64526V4.4986C8.00277 4.63121 8.05545 4.75838 8.14921 4.85215C8.24298 4.94592 8.37016 4.9986 8.50277 4.9986H11.3561C11.3168 4.94726 11.2741 4.8986 11.2274 4.85193L8.1481 1.7726C8.10277 1.7266 8.05343 1.68393 8.00277 1.64526Z" fill="#FED33D"/>
<path d="M4.96753 14.3913C4.71431 14.2122 4.52282 13.959 4.41943 13.6666H10.1668C10.7414 13.6666 11.2925 13.4383 11.6988 13.032C12.1052 12.6257 12.3334 12.0746 12.3334 11.4999V5.95793L12.8934 6.5186C13.0328 6.65783 13.1435 6.82317 13.219 7.00516C13.2944 7.18715 13.3333 7.38223 13.3334 7.57926V11.4999C13.3334 11.9158 13.2515 12.3276 13.0924 12.7118C12.9332 13.096 12.7 13.445 12.4059 13.7391C12.1119 14.0332 11.7628 14.2664 11.3786 14.4255C10.9944 14.5847 10.5826 14.6666 10.1668 14.6666H8.0001H5.83343C5.52328 14.6666 5.22076 14.5704 4.96753 14.3913Z" fill="#FED33D"/>
</svg>
