<svg width="16" height="16" viewBox="0 0 16 16" fill="none" xmlns="http://www.w3.org/2000/svg">
<path d="M15.2 4.40005C15.2 5.35483 14.8207 6.2705 14.1455 6.94563C13.4704 7.62076 12.5547 8.00005 11.6 8.00005C10.6452 8.00005 9.7295 7.62076 9.05437 6.94563C8.37924 6.2705 7.99995 5.35483 7.99995 4.40005C7.99995 3.44527 8.37924 2.5296 9.05437 1.85446C9.7295 1.17933 10.6452 0.800049 11.6 0.800049C12.5547 0.800049 13.4704 1.17933 14.1455 1.85446C14.8207 2.5296 15.2 3.44527 15.2 4.40005ZM12.1656 4.40005L13.0832 3.48325C13.1583 3.40814 13.2005 3.30627 13.2005 3.20005C13.2005 3.09383 13.1583 2.99196 13.0832 2.91685C13.008 2.84174 12.9062 2.79954 12.8 2.79954C12.6937 2.79954 12.5919 2.84174 12.5168 2.91685L11.6 3.83445L10.6832 2.91685C10.608 2.84174 10.5062 2.79954 10.4 2.79954C10.2937 2.79954 10.1919 2.84174 10.1168 2.91685C10.0416 2.99196 9.99945 3.09383 9.99945 3.20005C9.99945 3.30627 10.0416 3.40814 10.1168 3.48325L11.0344 4.40005L10.1168 5.31685C10.0416 5.39196 9.99945 5.49383 9.99945 5.60005C9.99945 5.70627 10.0416 5.80814 10.1168 5.88325C10.1919 5.95836 10.2937 6.00055 10.4 6.00055C10.5062 6.00055 10.608 5.95836 10.6832 5.88325L11.6 4.96565L12.5168 5.88325C12.5539 5.92044 12.5981 5.94994 12.6467 5.97007C12.6953 5.99019 12.7474 6.00055 12.8 6.00055C12.8525 6.00055 12.9046 5.99019 12.9532 5.97007C13.0018 5.94994 13.046 5.92044 13.0832 5.88325C13.1203 5.84606 13.1498 5.80191 13.17 5.75332C13.1901 5.70472 13.2005 5.65264 13.2005 5.60005C13.2005 5.54745 13.1901 5.49537 13.17 5.44678C13.1498 5.39819 13.1203 5.35404 13.0832 5.31685L12.1656 4.40005ZM11.6 8.80005C12.0057 8.80044 12.4095 8.74471 12.8 8.63445V12.8C12.8 13.2244 12.6314 13.6314 12.3313 13.9314C12.0313 14.2315 11.6243 14.4 11.2 14.4H4.79995C4.3756 14.4 3.96864 14.2315 3.66858 13.9314C3.36852 13.6314 3.19995 13.2244 3.19995 12.8V3.20005C3.19995 2.7757 3.36852 2.36874 3.66858 2.06868C3.96864 1.76862 4.3756 1.60005 4.79995 1.60005H8.20555C7.67453 2.24374 7.3375 3.02517 7.23378 3.85316C7.13007 4.68115 7.26394 5.52156 7.61978 6.27635C7.97562 7.03113 8.53875 7.66917 9.24349 8.11602C9.94822 8.56287 10.7655 8.8001 11.6 8.80005ZM5.59995 11.2C5.38778 11.2 5.1843 11.2843 5.03427 11.4344C4.88424 11.5844 4.79995 11.7879 4.79995 12C4.79995 12.2122 4.88424 12.4157 5.03427 12.5657C5.1843 12.7158 5.38778 12.8 5.59995 12.8H10.4C10.6121 12.8 10.8156 12.7158 10.9656 12.5657C11.1157 12.4157 11.2 12.2122 11.2 12C11.2 11.7879 11.1157 11.5844 10.9656 11.4344C10.8156 11.2843 10.6121 11.2 10.4 11.2H5.59995Z" fill="#FED33D"/>
<path d="M12.1656 4.40005L13.0832 3.48325C13.1583 3.40814 13.2005 3.30627 13.2005 3.20005C13.2005 3.09383 13.1583 2.99196 13.0832 2.91685C13.008 2.84174 12.9062 2.79954 12.8 2.79954C12.6937 2.79954 12.5919 2.84174 12.5168 2.91685L11.6 3.83445L10.6832 2.91685C10.608 2.84174 10.5062 2.79954 10.4 2.79954C10.2937 2.79954 10.1919 2.84174 10.1168 2.91685C10.0416 2.99196 9.99945 3.09383 9.99945 3.20005C9.99945 3.30627 10.0416 3.40814 10.1168 3.48325L11.0344 4.40005L10.1168 5.31685C10.0416 5.39196 9.99945 5.49383 9.99945 5.60005C9.99945 5.70627 10.0416 5.80814 10.1168 5.88325C10.1919 5.95836 10.2937 6.00055 10.4 6.00055C10.5062 6.00055 10.608 5.95836 10.6832 5.88325L11.6 4.96565L12.5168 5.88325C12.5539 5.92044 12.5981 5.94994 12.6467 5.97007C12.6953 5.99019 12.7474 6.00055 12.8 6.00055C12.8525 6.00055 12.9046 5.99019 12.9532 5.97007C13.0018 5.94994 13.046 5.92044 13.0832 5.88325C13.1203 5.84606 13.1498 5.80191 13.17 5.75332C13.1901 5.70472 13.2005 5.65264 13.2005 5.60005C13.2005 5.54745 13.1901 5.49537 13.17 5.44678C13.1498 5.39819 13.1203 5.35404 13.0832 5.31685L12.1656 4.40005Z" fill="#FED33D"/>
<path d="M10.5111 6.07995V5.57595L11.8071 4.35195C11.9095 4.25915 11.9847 4.17595 12.0327 4.10235C12.0807 4.02875 12.1127 3.96155 12.1287 3.90075C12.1479 3.83995 12.1575 3.78395 12.1575 3.73275C12.1575 3.59835 12.1111 3.49595 12.0183 3.42555C11.9287 3.35195 11.7959 3.31515 11.6199 3.31515C11.4791 3.31515 11.3479 3.34235 11.2263 3.39675C11.1079 3.45115 11.0071 3.53595 10.9239 3.65115L10.3575 3.28635C10.4855 3.09435 10.6647 2.94235 10.8951 2.83035C11.1255 2.71835 11.3911 2.66235 11.6919 2.66235C11.9415 2.66235 12.1591 2.70395 12.3447 2.78715C12.5335 2.86715 12.6791 2.98075 12.7815 3.12795C12.8871 3.27515 12.9399 3.45115 12.9399 3.65595C12.9399 3.76475 12.9255 3.87355 12.8967 3.98235C12.8711 4.08795 12.8167 4.19995 12.7335 4.31835C12.6535 4.43675 12.5351 4.56955 12.3783 4.71675L11.3031 5.72955L11.1543 5.44635H13.0503V6.07995H10.5111Z" fill="white"/>
</svg>
