<svg width="16" height="16" viewBox="0 0 16 16" fill="none" xmlns="http://www.w3.org/2000/svg">
<path d="M2.66663 2.99992C2.66663 2.55789 2.84222 2.13397 3.15478 1.82141C3.46734 1.50885 3.89127 1.33325 4.33329 1.33325H12C12.2188 1.33325 12.4356 1.37636 12.6378 1.46012C12.84 1.54388 13.0237 1.66664 13.1785 1.82141C13.3332 1.97617 13.456 2.1599 13.5398 2.36211C13.6235 2.56432 13.6666 2.78105 13.6666 2.99992V12.4999C13.6666 12.6325 13.6139 12.7597 13.5202 12.8535C13.4264 12.9472 13.2992 12.9999 13.1666 12.9999H3.66663C3.66663 13.1767 3.73686 13.3463 3.86189 13.4713C3.98691 13.5963 4.15648 13.6666 4.33329 13.6666H13.1666C13.2992 13.6666 13.4264 13.7193 13.5202 13.813C13.6139 13.9068 13.6666 14.034 13.6666 14.1666C13.6666 14.2992 13.6139 14.4264 13.5202 14.5201C13.4264 14.6139 13.2992 14.6666 13.1666 14.6666H4.33329C3.89127 14.6666 3.46734 14.491 3.15478 14.1784C2.84222 13.8659 2.66663 13.4419 2.66663 12.9999V2.99992ZM7.03396 4.24525C6.50926 4.46365 6.05295 4.81913 5.71282 5.27444C5.37268 5.72976 5.16123 6.26816 5.10063 6.83325H6.50529C6.53263 5.99992 6.66263 5.23525 6.86996 4.64459C6.91863 4.50525 6.97329 4.37192 7.03396 4.24525ZM9.26063 4.16792C9.33729 4.31592 9.40463 4.47659 9.46329 4.64459C9.66996 5.23525 9.79996 5.99992 9.82796 6.83325H11.3993C11.3347 6.23108 11.099 5.66001 10.72 5.18765C10.3409 4.71529 9.83451 4.36142 9.26063 4.16792ZM8.82729 6.83325C8.80063 6.09192 8.68329 5.44325 8.51996 4.97458C8.42463 4.70392 8.32329 4.51992 8.23529 4.41459C8.21505 4.3886 8.19202 4.3649 8.16663 4.34392C8.14127 4.36469 8.11824 4.38816 8.09796 4.41392C8.00996 4.52058 7.90863 4.70392 7.81329 4.97458C7.64996 5.44325 7.53329 6.09192 7.50663 6.83325H8.82663H8.82729ZM7.52463 7.83325C7.56996 8.43525 7.67463 8.96192 7.81329 9.35858C7.90863 9.62925 8.00996 9.81325 8.09796 9.91858C8.11809 9.94467 8.14112 9.96838 8.16663 9.98925C8.19199 9.96848 8.21501 9.94501 8.23529 9.91925C8.32329 9.81258 8.42463 9.62925 8.51996 9.35858C8.65863 8.96192 8.76329 8.43525 8.80863 7.83325H7.52463ZM6.52196 7.83325H5.15329C5.26113 8.33484 5.489 8.80279 5.81736 9.19699C6.14573 9.59119 6.56479 9.89987 7.03863 10.0966C6.97471 9.96398 6.91861 9.82775 6.87063 9.68858C6.69129 9.17725 6.57063 8.53658 6.52263 7.83325H6.52196ZM9.25596 10.1733C9.77756 9.9981 10.2446 9.69027 10.6113 9.28001C10.978 8.86976 11.2316 8.37118 11.3473 7.83325H9.81129C9.76396 8.53658 9.64263 9.17725 9.46329 9.68858C9.40329 9.85992 9.33463 10.0233 9.25663 10.1733H9.25596Z" fill="#FED33D"/>
<path d="M3.86189 13.4714C3.73686 13.3464 3.66663 13.1768 3.66663 13H2.66663C2.66663 13.442 2.84222 13.866 3.15478 14.1785C3.46734 14.4911 3.89127 14.6667 4.33329 14.6667H13.1666C13.2992 14.6667 13.4264 14.614 13.5202 14.5202C13.6139 14.4265 13.6666 14.2993 13.6666 14.1667C13.6666 14.0341 13.6139 13.9069 13.5202 13.8131C13.4264 13.7193 13.2992 13.6667 13.1666 13.6667H4.33329C4.15648 13.6667 3.98691 13.5964 3.86189 13.4714Z" fill="#FEDD6D"/>
</svg>
