<svg width="16" height="16" viewBox="0 0 16 16" fill="none" xmlns="http://www.w3.org/2000/svg">
<path d="M4.16667 2C3.59203 2 3.04093 2.22827 2.6346 2.6346C2.22827 3.04093 2 3.59203 2 4.16667V9.66667H5.33333V6.33333H3V4.16667C3 3.52267 3.52267 3 4.16667 3H11.8333C12.4773 3 13 3.52267 13 4.16667V6.33333H10.6667V9.66667H14V4.16667C14 3.59203 13.7717 3.04093 13.3654 2.6346C12.9591 2.22827 12.408 2 11.8333 2H4.16667ZM9.66667 9.66667V6.33333H6.33333V9.66667H9.66667Z" fill="#FED33D"/>
<path d="M10.6667 10.6667H14V11.8334C14 12.4081 13.7717 12.9592 13.3654 13.3655C12.9591 13.7718 12.408 14.0001 11.8333 14.0001H10.6667V10.6667Z" fill="#FED33D"/>
<path d="M9.66667 10.6667H6.33333V14.0001H9.66667V10.6667Z" fill="#FED33D"/>
<path d="M2 10.6667H5.33333V14.0001H4.16667C3.59203 14.0001 3.04093 13.7718 2.6346 13.3655C2.22827 12.9592 2 12.4081 2 11.8334V10.6667Z" fill="#FED33D"/>
</svg>
