<svg width="16" height="16" viewBox="0 0 16 16" fill="none" xmlns="http://www.w3.org/2000/svg">
<path d="M3.50004 3.33325C2.9254 3.33325 2.3743 3.56153 1.96798 3.96785C1.56165 4.37418 1.33337 4.92528 1.33337 5.49992V6.33325H14.6667V5.49992C14.6667 5.21539 14.6107 4.93364 14.5018 4.67077C14.3929 4.4079 14.2333 4.16905 14.0321 3.96785C13.8309 3.76666 13.5921 3.60706 13.3292 3.49818C13.0663 3.38929 12.7846 3.33325 12.5 3.33325H3.50004ZM14.6667 7.33325H1.33337V10.4999C1.33337 11.0746 1.56165 11.6257 1.96798 12.032C2.3743 12.4383 2.9254 12.6666 3.50004 12.6666H12.5C12.7846 12.6666 13.0663 12.6105 13.3292 12.5017C13.5921 12.3928 13.8309 12.2332 14.0321 12.032C14.2333 11.8308 14.3929 11.5919 14.5018 11.3291C14.6107 11.0662 14.6667 10.7844 14.6667 10.4999V7.33325ZM10.5 9.66658H12.1667C12.2993 9.66658 12.4265 9.71926 12.5203 9.81303C12.614 9.9068 12.6667 10.034 12.6667 10.1666C12.6667 10.2992 12.614 10.4264 12.5203 10.5201C12.4265 10.6139 12.2993 10.6666 12.1667 10.6666H10.5C10.3674 10.6666 10.2403 10.6139 10.1465 10.5201C10.0527 10.4264 10 10.2992 10 10.1666C10 10.034 10.0527 9.9068 10.1465 9.81303C10.2403 9.71926 10.3674 9.66658 10.5 9.66658Z" fill="#FED33D"/>
</svg>
