<svg width="16" height="16" viewBox="0 0 16 16" fill="none" xmlns="http://www.w3.org/2000/svg">
<path d="M4.33329 1.33325C3.89127 1.33325 3.46734 1.50885 3.15478 1.82141C2.84222 2.13397 2.66663 2.55789 2.66663 2.99992V12.9999C2.66663 13.4419 2.84222 13.8659 3.15478 14.1784C3.46734 14.491 3.89127 14.6666 4.33329 14.6666H4.66663V12.4999C4.66663 12.3673 4.7193 12.2401 4.81307 12.1464C4.90684 12.0526 5.03402 11.9999 5.16663 11.9999C5.29923 11.9999 5.42641 12.0526 5.52018 12.1464C5.61395 12.2401 5.66663 12.3673 5.66663 12.4999V14.6666H10.3333V12.4999C10.3333 12.3673 10.386 12.2401 10.4797 12.1464C10.5735 12.0526 10.7007 11.9999 10.8333 11.9999C10.9659 11.9999 11.0931 12.0526 11.1868 12.1464C11.2806 12.2401 11.3333 12.3673 11.3333 12.4999V14.6666H11.6666C12.1087 14.6666 12.5326 14.491 12.8451 14.1784C13.1577 13.8659 13.3333 13.4419 13.3333 12.9999V2.99992C13.3333 2.55789 13.1577 2.13397 12.8451 1.82141C12.5326 1.50885 12.1087 1.33325 11.6666 1.33325H11.3333V3.49992C11.3333 3.63253 11.2806 3.7597 11.1868 3.85347C11.0931 3.94724 10.9659 3.99992 10.8333 3.99992C10.7007 3.99992 10.5735 3.94724 10.4797 3.85347C10.386 3.7597 10.3333 3.63253 10.3333 3.49992V1.33325H5.66663V3.49992C5.66663 3.63253 5.61395 3.7597 5.52018 3.85347C5.42641 3.94724 5.29923 3.99992 5.16663 3.99992C5.03402 3.99992 4.90684 3.94724 4.81307 3.85347C4.7193 3.7597 4.66663 3.63253 4.66663 3.49992V1.33325H4.33329Z" fill="#FED33D"/>
<path d="M4.81307 10.8536C4.90684 10.9473 5.03402 11 5.16663 11C5.29923 11 5.42641 10.9473 5.52018 10.8536C5.61395 10.7598 5.66663 10.6326 5.66663 10.5V5.5C5.66663 5.36739 5.61395 5.24021 5.52018 5.14645C5.42641 5.05268 5.29923 5 5.16663 5C5.03402 5 4.90684 5.05268 4.81307 5.14645C4.7193 5.24021 4.66663 5.36739 4.66663 5.5V10.5C4.66663 10.6326 4.7193 10.7598 4.81307 10.8536Z" fill="#F5F5F5"/>
<path d="M10.4797 10.8536C10.5735 10.9473 10.7007 11 10.8333 11C10.9659 11 11.0931 10.9473 11.1868 10.8536C11.2806 10.7598 11.3333 10.6326 11.3333 10.5V5.5C11.3333 5.36739 11.2806 5.24021 11.1868 5.14645C11.0931 5.05268 10.9659 5 10.8333 5C10.7007 5 10.5735 5.05268 10.4797 5.14645C10.386 5.24021 10.3333 5.36739 10.3333 5.5V10.5C10.3333 10.6326 10.386 10.7598 10.4797 10.8536Z" fill="#F5F5F5"/>
</svg>
