<svg width="16" height="16" viewBox="0 0 16 16" fill="none" xmlns="http://www.w3.org/2000/svg">
<path d="M8.00005 1.33325C11.682 1.33325 14.6667 4.31792 14.6667 7.99992C14.6667 11.6819 11.682 14.6666 8.00005 14.6666C6.92153 14.668 5.8589 14.4067 4.90405 13.9053L2.04405 14.6499C1.94848 14.6748 1.84808 14.6743 1.75277 14.6484C1.65747 14.6226 1.57058 14.5722 1.50072 14.5024C1.43086 14.4326 1.38045 14.3458 1.35449 14.2505C1.32853 14.1552 1.32792 14.0548 1.35271 13.9593L2.09671 11.0999C1.59391 10.1441 1.33189 9.07996 1.33338 7.99992C1.33338 4.31792 4.31805 1.33325 8.00005 1.33325ZM8.83471 8.66659H5.83338L5.76538 8.67125C5.64571 8.68772 5.53604 8.74695 5.45665 8.83801C5.37727 8.92907 5.33353 9.04578 5.33353 9.16659C5.33353 9.28739 5.37727 9.40411 5.45665 9.49516C5.53604 9.58622 5.64571 9.64545 5.76538 9.66192L5.83338 9.66659H8.83471L8.90205 9.66192C9.02172 9.64545 9.13139 9.58622 9.21077 9.49516C9.29016 9.40411 9.33389 9.28739 9.33389 9.16659C9.33389 9.04578 9.29016 8.92907 9.21077 8.83801C9.13139 8.74695 9.02172 8.68772 8.90205 8.67125L8.83471 8.66659ZM10.1667 6.33325H5.83338L5.76538 6.33792C5.64571 6.35438 5.53604 6.41362 5.45665 6.50468C5.37727 6.59573 5.33353 6.71245 5.33353 6.83325C5.33353 6.95405 5.37727 7.07077 5.45665 7.16183C5.53604 7.25288 5.64571 7.31212 5.76538 7.32859L5.83338 7.33325H10.1667L10.2347 7.32859C10.3544 7.31212 10.4641 7.25288 10.5434 7.16183C10.6228 7.07077 10.6666 6.95405 10.6666 6.83325C10.6666 6.71245 10.6228 6.59573 10.5434 6.50468C10.4641 6.41362 10.3544 6.35438 10.2347 6.33792L10.1667 6.33325Z" fill="#FED33D"/>
</svg>
