<svg width="40" height="40" viewBox="0 0 40 40" fill="none" xmlns="http://www.w3.org/2000/svg">
<path d="M20.8838 28.3838C21.1181 28.1493 21.2497 27.8315 21.2497 27.5C21.2497 27.1685 21.1181 26.8507 20.8838 26.6162L15.5175 21.25H27.5C27.8315 21.25 28.1495 21.1183 28.3839 20.8839C28.6183 20.6495 28.75 20.3315 28.75 20C28.75 19.6685 28.6183 19.3505 28.3839 19.1161C28.1495 18.8817 27.8315 18.75 27.5 18.75H15.5175L20.8838 13.3837C21.1114 13.148 21.2374 12.8322 21.2346 12.5045C21.2317 12.1768 21.1003 11.8632 20.8685 11.6315C20.6368 11.3997 20.3232 11.2683 19.9955 11.2654C19.6678 11.2626 19.352 11.3886 19.1163 11.6163L11.6163 19.1163C11.3819 19.3507 11.2503 19.6685 11.2503 20C11.2503 20.3315 11.3819 20.6493 11.6163 20.8838L19.1163 28.3838C19.3507 28.6181 19.6685 28.7497 20 28.7497C20.3315 28.7497 20.6493 28.6181 20.8838 28.3838ZM20 37.5C29.665 37.5 37.5 29.665 37.5 20C37.5 10.335 29.665 2.5 20 2.5C10.335 2.5 2.5 10.335 2.5 20C2.5 29.665 10.335 37.5 20 37.5ZM35 20C35 28.2838 28.2838 35 20 35C11.7163 35 5 28.2838 5 20C5 11.7163 11.7163 5 20 5C28.2838 5 35 11.7163 35 20Z" fill="#FED33D"/>
</svg>
