<svg width="122" height="126" viewBox="0 0 122 126" fill="none" xmlns="http://www.w3.org/2000/svg">
<path d="M29.0584 13.6355C25.1031 19.3187 29.7409 28.5325 23.8717 32.8071C18.1587 36.9678 11.1401 30.1475 5.75579 33.7292C-2.23155 39.0421 -0.772903 63.353 10.905 78.458C14.417 83.0005 17.3512 84.7677 18.6511 89.9053C21.4418 100.937 11.6337 107.499 13.5002 112.955C17.703 125.24 82.3354 135.548 108.27 98.6284C120.381 81.3852 122.193 56.4862 111.37 37.5752C91.8169 3.40302 37.9341 0.883264 29.0584 13.6355Z" fill="#F4F7FA"/>
<path d="M78.31 91.1637C82.4801 88.2187 83.2258 80.5044 82.2047 75.3276C81.0128 69.283 77.8905 69.123 77.3293 64.3499C76.2838 55.4635 86.6779 52.3738 86.3348 43.3287C86.054 35.934 79.0011 35.1929 79.063 26.9899C79.1075 21.0703 82.8014 18.6112 81.1407 13.445C80.9988 13.0034 79.4008 8.26366 75.3526 7.15596C71.267 6.03794 67.075 9.27362 65.0014 11.88C61.169 16.698 64.0059 20.0842 61.5591 27.4629C58.2278 37.5085 50.9976 37.1782 50.0738 45.0818C49.3105 51.6084 54.0646 53.3393 53.0749 60.5591C52.1556 67.2635 47.7223 68.2075 47.5363 72.7769C47.1099 83.291 69.8034 97.1703 78.31 91.1637Z" fill="url(#paint0_linear_230_719)"/>
<g style="mix-blend-mode:soft-light" opacity="0.7">
<path d="M72.296 96.0386C72.3129 96.0374 72.3291 96.0309 72.3422 96.0201C72.3553 96.0093 72.3648 95.9947 72.3693 95.9783C72.3738 95.9619 72.3731 95.9445 72.3674 95.9285C72.3617 95.9125 72.3511 95.8987 72.3372 95.8889C68.4508 93.6063 65.213 90.6102 62.7131 86.9865C60.3451 83.5524 57.8971 80.0025 58.0942 75.5985C58.2423 72.2684 59.8052 70.4736 61.7844 68.2013C63.7119 65.9884 66.1104 63.2344 67.7914 58.126C68.751 55.2083 69.9453 51.5779 69.0199 47.2114C68.4809 44.6669 67.4891 43.2326 66.614 41.967C65.6976 40.6419 64.9743 39.5957 65.1174 37.7378C65.3508 34.7058 66.9868 32.7478 68.8809 30.4845C70.0513 29.0853 71.2613 27.639 72.3265 25.7514C75.3251 20.4414 75.4096 13.3081 72.5785 4.55082C72.5719 4.53059 72.5576 4.51379 72.5386 4.50412C72.5197 4.49446 72.4977 4.49271 72.4774 4.49927C72.4572 4.50584 72.4404 4.52017 72.4307 4.53912C72.4211 4.55806 72.4193 4.58008 72.4259 4.60031C75.2426 13.3131 75.1622 20.403 72.1867 25.6739C71.1285 27.5478 69.9235 28.9892 68.758 30.3827C66.8461 32.669 65.1949 34.6436 64.9573 37.7267C64.8097 39.641 65.5846 40.7619 66.4832 42.0593C67.3493 43.3126 68.332 44.7329 68.8644 47.2457C69.7808 51.5705 68.5939 55.1777 67.6404 58.0765C65.9694 63.1548 63.5824 65.8952 61.6648 68.0978C59.665 70.3932 58.0855 72.2065 57.935 75.5927C57.7367 80.0508 60.2003 83.6234 62.5828 87.078C65.0984 90.7232 68.3518 93.7342 72.2585 96.0271C72.2699 96.0339 72.2827 96.0379 72.296 96.0386Z" fill="white"/>
</g>
<g style="mix-blend-mode:soft-light" opacity="0.7">
<path d="M69.2323 49.386C69.252 49.3858 69.271 49.3787 69.2859 49.3657C75.9593 43.4025 79.094 37.8648 80.5481 34.2691C82.1263 30.3669 82.1226 27.8393 82.1226 27.8142C82.1231 27.8034 82.1212 27.7926 82.1172 27.7825C82.1131 27.7725 82.107 27.7634 82.0992 27.7559C82.0914 27.7484 82.0822 27.7426 82.072 27.7389C82.0618 27.7352 82.0509 27.7338 82.0401 27.7346C82.0295 27.7347 82.019 27.7369 82.0092 27.7412C81.9994 27.7454 81.9906 27.7515 81.9832 27.7592C81.9758 27.7669 81.9701 27.776 81.9662 27.7859C81.9624 27.7958 81.9606 27.8064 81.961 27.8171C81.961 27.8418 81.961 30.3451 80.3938 34.2204C78.9455 37.798 75.8236 43.3088 69.1766 49.2474C69.1612 49.2619 69.152 49.2818 69.1509 49.3029C69.1497 49.324 69.1567 49.3447 69.1704 49.3608C69.1784 49.3691 69.188 49.3756 69.1987 49.3799C69.2093 49.3842 69.2208 49.3863 69.2323 49.386Z" fill="white"/>
</g>
<g style="mix-blend-mode:soft-light" opacity="0.7">
<path d="M66.0411 62.2016C66.0577 62.2017 66.074 62.1967 66.0875 62.1871C66.1011 62.1776 66.1114 62.1641 66.117 62.1485C66.1226 62.1329 66.1231 62.1159 66.1186 62.0999C66.1141 62.0839 66.1048 62.0698 66.0919 62.0593C62.4157 59.0554 59.6209 55.6507 57.7853 51.9387C56.3239 48.9944 55.454 45.7922 55.2247 42.5133C54.8317 36.9166 56.4281 32.8759 56.4442 32.8355C56.4521 32.8158 56.4519 32.7938 56.4436 32.7743C56.4353 32.7547 56.4196 32.7393 56.3999 32.7314C56.3802 32.7235 56.3582 32.7237 56.3386 32.732C56.3191 32.7403 56.3037 32.756 56.2957 32.7757C56.2792 32.817 54.6701 36.8853 55.0643 42.517C55.2941 45.8173 56.1689 49.0406 57.6393 52.0042C59.4848 55.7385 62.2949 59.1631 65.9904 62.1826C66.0047 62.1945 66.0226 62.2012 66.0411 62.2016Z" fill="white"/>
</g>
<g style="mix-blend-mode:soft-light" opacity="0.7">
<path d="M59.9813 83.375C59.9889 83.3752 59.9964 83.374 60.0036 83.3717C69.8496 80.4849 74.9881 75.2281 77.5652 71.3297C80.3596 67.1009 80.8298 63.5044 80.8339 63.4685C80.8352 63.4581 80.8344 63.4475 80.8315 63.4373C80.8287 63.4272 80.8239 63.4177 80.8174 63.4094C80.8109 63.4011 80.8029 63.3942 80.7937 63.389C80.7845 63.3838 80.7744 63.3805 80.764 63.3792C80.7535 63.378 80.7429 63.3788 80.7328 63.3816C80.7226 63.3844 80.7132 63.3892 80.7049 63.3957C80.6966 63.4022 80.6896 63.4103 80.6845 63.4194C80.6793 63.4286 80.676 63.4387 80.6747 63.4492C80.6706 63.4846 80.2033 67.0502 77.4266 71.2489C74.864 75.1254 69.7531 80.346 59.9587 83.2196C59.9399 83.2247 59.9236 83.2366 59.913 83.2529C59.9023 83.2692 59.8979 83.2888 59.9007 83.3081C59.9035 83.3274 59.9132 83.345 59.9281 83.3576C59.9429 83.3703 59.9619 83.377 59.9813 83.3767V83.375Z" fill="white"/>
</g>
<g style="mix-blend-mode:soft-light" opacity="0.7">
<path d="M72.5822 24.7966C72.5978 24.7967 72.6131 24.7922 72.6261 24.7837C72.6392 24.7752 72.6495 24.7631 72.6558 24.7488C72.6621 24.7345 72.664 24.7187 72.6614 24.7033C72.6588 24.6879 72.6518 24.6736 72.6412 24.6622C67.1031 18.6569 66.4284 12.3942 66.8375 8.198C67.2808 3.65048 69.0549 0.486141 69.0727 0.453974C69.0779 0.444821 69.0812 0.434735 69.0825 0.42429C69.0838 0.413845 69.083 0.403245 69.0803 0.393097C69.0775 0.382949 69.0727 0.373451 69.0662 0.365145C69.0598 0.356839 69.0517 0.349888 69.0426 0.344688C69.0334 0.339489 69.0233 0.336144 69.0129 0.334843C69.0024 0.333542 68.9918 0.334311 68.9817 0.337107C68.9715 0.339903 68.962 0.34467 68.9537 0.351136C68.9454 0.357602 68.9385 0.365642 68.9333 0.374794C68.9151 0.406549 67.1245 3.6014 66.6779 8.18233C66.2655 12.4111 66.9451 18.722 72.5232 24.7711C72.5308 24.7791 72.54 24.7854 72.5501 24.7898C72.5602 24.7942 72.5711 24.7965 72.5822 24.7966Z" fill="white"/>
</g>
<path d="M62.8277 97.6028C63.5617 98.381 65.8444 99.4268 66.552 99.4541C71.26 99.6355 80.0532 100.548 83.9058 97.3921C84.5656 96.8526 82.9729 93.318 83.2913 92.4301C82.8245 89.9301 82.5078 89.0921 83.2307 86.4973C85.3661 78.837 101.454 81.1007 97.0733 68.0631C93.8648 58.514 86.4156 53.8873 99.1023 45.9585C111.789 38.0297 126.85 12.4841 109.17 5.84282C99.0252 2.03143 94.1428 16.9149 83.8336 18.6457C74.0371 20.2904 70.3242 27.643 71.5528 38.4269C72.7813 49.2107 66.4951 47.5343 58.0405 50.2759C47.8844 53.5689 55.6012 67.2667 59.7033 73.2878C63.0066 78.1376 68.1472 92.7117 62.8277 97.6028Z" fill="url(#paint1_linear_230_719)"/>
<g style="mix-blend-mode:soft-light" opacity="0.7">
<g style="mix-blend-mode:soft-light">
<path d="M74.8042 98.5666L75.0281 98.5274C68.9551 64.0203 84.0135 29.6498 115.308 6.58594L115.173 6.40283C100.342 17.3314 88.7305 31.353 81.5947 46.9417C74.0928 63.3308 71.7446 81.1823 74.8042 98.5666Z" fill="#FCFDFE"/>
</g>
<g style="mix-blend-mode:soft-light">
<path d="M53.6621 51.1602C61.4276 56.7758 70.4377 69.0554 73.746 78.5331L73.9608 78.4581C70.6385 68.9432 61.5921 56.6146 53.7945 50.9758L53.6621 51.1602Z" fill="#FCFDFE"/>
</g>
<g style="mix-blend-mode:soft-light">
<path d="M73.6895 91.7793L73.9159 91.8032C74.471 86.6148 77.6275 81.9056 83.2992 77.8085C87.4574 74.8037 92.8454 72.1916 99.3135 70.0442L99.2417 69.8281C92.7518 71.9829 87.3428 74.6058 83.166 77.6225C77.4403 81.7613 74.2536 86.522 73.6895 91.7793Z" fill="#FCFDFE"/>
</g>
<g style="mix-blend-mode:soft-light">
<path d="M82.6934 44.7674L82.9181 44.8033C84.4679 35.0768 79.993 25.7364 75.9663 19.6135L75.7762 19.7372C79.7798 25.828 84.2316 35.1131 82.6934 44.7674Z" fill="#FCFDFE"/>
</g>
<g style="mix-blend-mode:soft-light">
<path d="M94.7828 25.737L94.9292 25.911C103.415 18.765 115.048 18.1897 121.226 18.4842L121.237 18.2569C115.025 17.9608 103.328 18.5386 94.7828 25.737Z" fill="#FCFDFE"/>
</g>
</g>
<path d="M81.8941 85.1293C83.9594 85.5289 86.2136 84.7416 87.5555 82.9745L106.48 58.0553C108.203 55.7871 107.759 52.5939 105.478 50.9084C103.18 49.211 98.8656 49.3801 97.1059 51.6689L77.8011 76.8128C75.9811 79.1837 76.4909 82.4277 78.929 84.0422C79.5323 84.4398 81.2128 84.9961 81.8941 85.1293Z" fill="url(#paint2_linear_230_719)"/>
<g style="mix-blend-mode:multiply" opacity="0.3">
<path d="M105.478 50.9084C103.181 49.211 98.8656 49.3801 97.1059 51.6689L79.4552 74.6593C81.4046 74.6659 83.5561 75.2721 86.1068 73.9929C90.3545 71.8632 89.665 67.5368 93.306 64.7914C94.9705 63.5365 97.7212 62.4758 102.568 63.2045L106.478 58.0553C108.203 55.7863 107.759 52.5939 105.478 50.9084Z" fill="#97A6B7"/>
</g>
<path d="M113.93 47.1879C113.83 47.1619 113.729 47.143 113.627 47.1314L106.453 45.177L101.577 63.8814L108.547 65.5969C108.713 65.689 108.89 65.7601 109.074 65.8085C111.539 66.451 114.625 62.8038 115.965 57.6616C117.306 52.5194 116.395 47.8304 113.93 47.1879Z" fill="url(#paint3_linear_230_719)"/>
<path d="M106.453 45.177C107.554 52.1156 105.937 58.3218 101.577 63.8817L43.5798 67.1368L56.7131 14.4937L106.453 45.177Z" fill="url(#paint4_linear_230_719)"/>
<path style="mix-blend-mode:multiply" opacity="0.25" d="M62.0466 55.4709C67.6371 54.8696 71.1421 47.9005 77.114 49.1917C81.7997 50.2049 82.0216 55.0696 86.6908 55.7682C91.4692 56.4829 93.5564 51.6743 99.2231 51.2648C101.8 51.0788 104.238 51.8727 106.464 53.1783C105.818 56.9823 104.189 60.55 101.577 63.8813L43.5798 67.1364L51.3923 50.1365C55.8664 54.59 59.338 55.7624 62.0466 55.4709Z" fill="url(#paint5_linear_230_719)"/>
<path d="M40.8061 67.1527C33.6169 65.2787 30.9572 51.6052 34.8655 36.612C38.7737 21.6189 47.7699 10.9836 54.959 12.8576C62.1481 14.7316 64.8078 28.4051 60.8996 43.3983C56.9914 58.3914 47.9952 69.0266 40.8061 67.1527Z" fill="url(#paint6_linear_230_719)"/>
<path d="M41.0452 66.232C39.5194 65.8341 38.1861 64.8031 37.0837 63.1671C35.962 61.5022 35.129 59.2996 34.6093 56.6207C33.514 50.9894 33.9326 43.9687 35.7876 36.8523C37.6425 29.736 40.705 23.4048 44.41 19.0247C46.1693 16.9392 47.9735 15.4245 49.7654 14.5172C51.5259 13.6277 53.1928 13.3782 54.7191 13.7749C56.2454 14.1716 57.5779 15.2039 58.6782 16.8398C59.8003 18.5047 60.6334 20.7073 61.1526 23.3863C61.6103 25.7406 61.8037 28.3383 61.7382 31.0841C61.6466 34.9054 58.2183 38.0252 57.1391 42.1661C55.991 46.5693 57.2166 51.6599 55.2779 55.1859C54.082 57.3585 52.7623 59.3099 51.3519 60.9822C49.5893 63.0656 47.7871 64.5812 45.9953 65.4864C44.238 66.3784 42.5715 66.6279 41.0452 66.232Z" fill="url(#paint7_linear_230_719)"/>
<path d="M46.7182 40.0806C44.9251 46.9586 48.0556 53.6073 53.6308 54.9113C59.1194 56.1959 64.9203 51.8022 66.6626 45.1156C68.405 38.4289 65.4708 31.8301 60.0317 30.3558C54.5072 28.8584 48.5109 33.2026 46.7182 40.0806Z" fill="url(#paint8_linear_230_719)"/>
<path style="mix-blend-mode:multiply" opacity="0.3" d="M47.6222 40.1969C46.291 45.3041 47.4527 49.9378 50.1791 50.5379C52.8625 51.1288 56.057 47.576 57.3515 42.6107C58.646 37.6454 57.5796 33.0356 54.9328 32.3036C52.2435 31.5605 48.9538 35.0894 47.6222 40.1969Z" fill="url(#paint9_linear_230_719)"/>
<path d="M81.8941 85.1295C83.9594 85.5291 86.2136 84.7419 87.5555 82.9747L106.48 58.0555C108.203 55.7873 107.759 52.5941 105.478 50.9087C103.18 49.2112 98.8656 49.3803 97.1059 51.6691L77.8011 76.8131C75.9811 79.184 76.4909 82.4279 78.929 84.0424C79.5323 84.44 81.2128 84.9963 81.8941 85.1295Z" fill="url(#paint10_linear_230_719)"/>
<path style="mix-blend-mode:multiply" opacity="0.3" d="M105.478 50.9087C103.181 49.2112 98.8656 49.3803 97.1059 51.6691L79.4552 74.6595C81.4046 74.6661 83.5561 75.2724 86.1068 73.9931C90.3545 71.8635 89.665 67.537 93.306 64.7917C94.9705 63.5367 97.7212 62.476 102.568 63.2048L106.478 58.0555C108.203 55.7865 107.759 52.5941 105.478 50.9087Z" fill="url(#paint11_linear_230_719)"/>
<path d="M113.93 47.1881C113.83 47.1622 113.729 47.1433 113.627 47.1316L106.453 45.1772L101.577 63.8816L108.547 65.5972C108.713 65.6892 108.89 65.7603 109.074 65.8087C111.539 66.4513 114.625 62.804 115.965 57.6618C117.306 52.5196 116.395 47.8306 113.93 47.1881Z" fill="url(#paint12_linear_230_719)"/>
<path d="M106.453 45.1772C107.554 52.1158 105.937 58.322 101.577 63.882L43.5798 67.137L56.713 14.4939L106.453 45.1772Z" fill="url(#paint13_linear_230_719)"/>
<path style="mix-blend-mode:multiply" opacity="0.25" d="M62.0466 55.4711C67.6371 54.8698 71.1421 47.9007 77.114 49.1919C81.7997 50.2052 82.0216 55.0698 86.6908 55.7684C91.4692 56.4831 93.5564 51.6746 99.2231 51.265C101.8 51.0791 104.238 51.8729 106.464 53.1786C105.818 56.9825 104.189 60.5502 101.577 63.8816L43.5798 67.1366L51.3923 50.1367C55.8664 54.5902 59.338 55.7627 62.0466 55.4711Z" fill="url(#paint14_linear_230_719)"/>
<path d="M40.806 67.1527C33.6169 65.2787 30.9572 51.6052 34.8654 36.612C38.7736 21.6189 47.7698 10.9836 54.9589 12.8576C62.1481 14.7316 64.8078 28.4051 60.8996 43.3983C56.9913 58.3914 47.9951 69.0266 40.806 67.1527Z" fill="url(#paint15_linear_230_719)"/>
<path d="M41.0452 66.2323C39.5193 65.8343 38.186 64.8033 37.0837 63.1673C35.9619 61.5025 35.1289 59.2999 34.6093 56.6209C33.5139 50.9896 33.9325 43.9689 35.7875 36.8526C37.6425 29.7362 40.7049 23.4051 44.4099 19.025C46.1692 16.9395 47.9735 15.4247 49.7653 14.5174C51.5259 13.6279 53.1928 13.3784 54.7191 13.7751C56.2454 14.1719 57.5778 15.2041 58.6781 16.8401C59.8002 18.5049 60.6333 20.7076 61.1525 23.3865C61.6103 25.7409 61.8037 28.3386 61.7381 31.0843C61.6466 34.9056 58.2183 38.0254 57.139 42.1663C55.9909 46.5695 57.2166 51.6602 55.2779 55.1862C54.0819 57.3587 52.7622 59.3102 51.3518 60.9824C49.5893 63.0659 47.7871 64.5815 45.9952 65.4867C44.238 66.3787 42.5715 66.6282 41.0452 66.2323Z" fill="url(#paint16_linear_230_719)"/>
<mask id="mask0_230_719" style="mask-type:alpha" maskUnits="userSpaceOnUse" x="34" y="13" width="28" height="54">
<path d="M41.155 66.3378C39.6292 65.9398 38.2959 64.9088 37.1935 63.2728C36.0718 61.608 35.2388 59.4053 34.7191 56.7264C33.6238 51.0951 34.0424 44.0744 35.8974 36.958C37.7523 29.8417 40.8148 23.5105 44.5198 19.1304C46.2791 17.0449 48.0833 15.5302 49.8752 14.6229C51.6357 13.7334 53.3027 13.4839 54.8289 13.8806C56.3552 14.2773 57.6877 15.3096 58.788 16.9455C59.9101 18.6104 60.7432 20.813 61.2624 23.492C61.7201 25.8464 61.9135 28.4441 61.848 31.1898C61.7564 35.0111 58.3281 38.1309 57.2489 42.2718C56.1008 46.675 57.3264 51.7656 55.3877 55.2916C54.1918 57.4642 52.8721 59.4156 51.4617 61.0879C49.6991 63.1714 47.8969 64.6869 46.1051 65.5921C44.3478 66.4842 42.6813 66.7337 41.155 66.3378Z" fill="url(#paint17_linear_230_719)"/>
</mask>
<g mask="url(#mask0_230_719)">
<path d="M47.4993 40.0806C45.7401 46.9586 48.8115 53.6073 54.2815 54.9113C59.6666 56.1959 65.3579 51.8022 67.0674 45.1156C68.7769 38.4289 65.8981 31.8301 60.5616 30.3558C55.1413 28.8584 49.2582 33.2026 47.4993 40.0806Z" fill="url(#paint18_linear_230_719)"/>
</g>
<g style="mix-blend-mode:multiply" opacity="0.3">
<path d="M47.9973 40.1969C46.7147 45.3041 47.834 49.9378 50.4609 50.5379C53.0464 51.1288 56.1242 47.576 57.3715 42.6107C58.6188 37.6454 57.5912 33.0356 55.0411 32.3036C52.45 31.5605 49.2803 35.0894 47.9973 40.1969Z" fill="#97A6B7"/>
</g>
<path d="M11.7554 75.1971L109.697 72.5549C114.759 72.4179 118.927 76.5007 118.927 81.6788V101.299C118.927 106.476 114.759 110.52 109.697 110.335L11.7554 106.758C8.27724 106.631 5.49313 103.12 5.49313 98.9158V82.9791C5.49313 78.7747 8.27724 75.2911 11.7554 75.1971Z" fill="#97A6B7"/>
<path d="M109.697 109.105C114.072 109.255 117.679 105.743 117.679 101.273V81.6932C117.679 77.2233 114.072 73.6766 109.697 73.7859L11.755 76.2253C8.74243 76.3003 6.31834 79.3257 6.31834 82.9696V98.9352C6.31834 102.58 8.74243 105.628 11.755 105.732L109.697 109.105Z" fill="url(#paint19_linear_230_719)"/>
<path d="M97.3975 81.5321L94.7362 87.156C94.6897 87.2568 94.6191 87.3446 94.5307 87.4117C94.4422 87.4788 94.3386 87.5231 94.229 87.5408L88.3758 88.4386C87.8356 88.5211 87.6203 89.2201 88.0108 89.6217L92.2289 93.9631C92.3067 94.0442 92.3646 94.1423 92.398 94.2497C92.4313 94.3571 92.4392 94.4707 92.421 94.5817L91.4189 100.682C91.3257 101.25 91.8973 101.698 92.3872 101.439L97.6907 98.6405C97.7888 98.5889 97.8984 98.5629 98.0092 98.5648C98.1201 98.5668 98.2287 98.5966 98.3249 98.6516L103.74 101.693C104.251 101.979 104.848 101.548 104.75 100.962L103.705 94.7C103.685 94.5865 103.693 94.4699 103.728 94.3601C103.763 94.2503 103.824 94.1505 103.905 94.0691L108.359 89.6564C108.778 89.2411 108.547 88.5165 107.968 88.4312L101.835 87.5239C101.724 87.5069 101.618 87.4627 101.527 87.3952C101.437 87.3277 101.364 87.2388 101.316 87.1366L98.619 81.5144C98.3691 80.996 97.647 81.0043 97.3975 81.5321Z" fill="#D8DEE8"/>
<path d="M75.8327 81.7935L73.3645 87.2087C73.3229 87.3047 73.2582 87.3888 73.176 87.4536C73.0939 87.5184 72.997 87.5618 72.8939 87.5798L67.4618 88.4459C66.9604 88.5259 66.7607 89.1993 67.1228 89.5862L71.0369 93.7658C71.1099 93.8455 71.1638 93.9406 71.1948 94.0441C71.2257 94.1476 71.2328 94.2568 71.2155 94.3634L70.2855 100.24C70.1989 100.788 70.7293 101.219 71.1837 100.969L76.1036 98.2701C76.1941 98.2205 76.2959 98.1954 76.3991 98.1972C76.5022 98.199 76.6031 98.2277 76.6917 98.2804L81.711 101.203C82.1836 101.479 82.7371 101.063 82.6468 100.5L81.6768 94.4719C81.6586 94.3634 81.6659 94.2523 81.698 94.1471C81.7301 94.042 81.7863 93.9458 81.862 93.866L85.9901 89.6183C86.3782 89.2187 86.1641 88.5214 85.628 88.4393L79.9464 87.5671C79.8418 87.5498 79.743 87.5068 79.6591 87.442C79.5751 87.3773 79.5084 87.2927 79.4651 87.1959L76.966 81.7795C76.7338 81.2772 76.0641 81.2846 75.8327 81.7935Z" fill="url(#paint20_linear_230_719)"/>
<path d="M55.8075 81.8565L53.51 87.0783C53.4727 87.1696 53.4131 87.2501 53.3368 87.3126C53.2604 87.375 53.1697 87.4174 53.0728 87.4359L48.0177 88.2698C47.5508 88.3465 47.3648 88.9964 47.7022 89.3696L51.3461 93.4029C51.4144 93.4811 51.4645 93.5734 51.493 93.6732C51.5215 93.773 51.5277 93.8778 51.5111 93.9802L50.6451 99.6499C50.5646 100.178 51.0575 100.593 51.481 100.351L56.0586 97.7446C56.1422 97.697 56.2371 97.6727 56.3333 97.6744C56.4296 97.6761 56.5236 97.7036 56.6055 97.7541L61.2697 100.568C61.7089 100.833 62.2236 100.432 62.1394 99.8895L61.2396 94.0796C61.2226 93.9757 61.2292 93.8693 61.259 93.7682C61.2887 93.6672 61.3409 93.5742 61.4116 93.4961L65.2469 89.4006C65.6073 89.0154 65.4085 88.3436 64.9108 88.2644L59.6321 87.4235C59.5334 87.4057 59.4408 87.3634 59.3626 87.3006C59.2844 87.2378 59.2233 87.1564 59.1846 87.0639L56.8603 81.8433C56.6442 81.3588 56.0227 81.367 55.8075 81.8565Z" fill="url(#paint21_linear_230_719)"/>
<path d="M97.6471 81.5298L95.0013 87.15C94.9037 87.3574 94.715 87.501 94.4968 87.5348L88.6653 88.4322C88.1264 88.5154 87.9115 89.2155 88.301 89.6178L92.5061 93.9607C92.5855 94.047 92.6435 94.1467 92.6764 94.2535C92.7094 94.3603 92.7166 94.4719 92.6975 94.5813L91.6994 100.689C91.6061 101.259 92.1755 101.703 92.6637 101.443L97.9383 98.6308C98.0332 98.5794 98.1432 98.5529 98.2549 98.5546C98.3666 98.5563 98.4754 98.586 98.5683 98.6403L103.941 101.662C104.446 101.947 105.037 101.514 104.941 100.93L103.905 94.6826C103.884 94.5716 103.892 94.4582 103.926 94.3498C103.96 94.2415 104.02 94.1408 104.102 94.0544L108.512 89.6492C108.927 89.2349 108.698 88.5126 108.126 88.4274L102.053 87.5238C101.83 87.4906 101.638 87.3455 101.539 87.1367L98.8617 81.5179C98.6124 80.9952 97.8947 81.0033 97.6471 81.5298Z" fill="#D8DEE8"/>
<path d="M37.2566 82.1439L35.1231 87.0381C35.0896 87.1227 35.0349 87.1978 34.9639 87.2563C34.8928 87.3149 34.8078 87.3551 34.7166 87.3732L30.0166 88.1547C29.5826 88.2271 29.4096 88.8353 29.7232 89.1868L33.1116 92.968C33.1753 93.0422 33.222 93.1288 33.2487 93.222C33.2753 93.3152 33.2813 93.4128 33.2661 93.5085L32.4617 98.8238C32.3865 99.3186 32.8456 99.7078 33.2386 99.4816L37.4917 97.0355C37.5688 96.9905 37.6572 96.9675 37.747 96.969C37.8368 96.9705 37.9243 96.9964 37.9997 97.0439L42.3314 99.6781C42.7395 99.9263 43.2167 99.55 43.1386 99.0416L42.3035 93.5969C42.2875 93.5 42.2935 93.4008 42.321 93.3063C42.3486 93.2118 42.397 93.1244 42.4629 93.0501L46.0227 89.2156C46.3573 88.8553 46.1723 88.2255 45.7103 88.1511L40.8078 87.3624C40.715 87.3447 40.6283 87.3046 40.5557 87.2457C40.4831 87.1868 40.4269 87.111 40.3922 87.0253L38.2332 82.1323C38.0351 81.6779 37.4564 81.6851 37.2566 82.1439Z" fill="url(#paint22_linear_230_719)"/>
<g style="mix-blend-mode:multiply" opacity="0.1">
<g style="mix-blend-mode:multiply">
<path d="M26.1791 92.5257C38.8216 89.0842 47.3157 106.321 62.0165 102.535C74.7625 99.2527 75.1184 85.039 90.2659 74.9224C91.3043 74.2293 92.361 73.5864 93.436 72.9936L109.696 72.5549C114.759 72.4179 118.927 76.5007 118.927 81.6788V101.299C118.927 106.476 114.759 110.52 109.697 110.335L12.421 106.782C17.0951 97.1041 22.0439 93.6511 26.1791 92.5257Z" fill="#97A6B7" fill-opacity="0.04"/>
</g>
</g>
<path d="M20.2469 81.8248L22.4638 86.8968C22.5026 86.9877 22.5614 87.0669 22.6351 87.1274C22.7088 87.1879 22.7951 87.2279 22.8864 87.2438L27.7624 88.0535C28.2124 88.1279 28.3918 88.7583 28.0664 89.1206L24.5526 93.0359C24.4878 93.109 24.4395 93.1975 24.4117 93.2944C24.384 93.3912 24.3774 93.4937 24.3925 93.5938L25.2273 99.0954C25.305 99.6079 24.8288 100.011 24.4207 99.7782L20.0027 97.2543C19.9209 97.2078 19.8296 97.1843 19.7373 97.1861C19.6449 97.1878 19.5545 97.2148 19.4743 97.2644L14.9631 100.007C14.5378 100.265 14.0404 99.8764 14.1218 99.3483L14.9924 93.7005C15.0088 93.5982 15.0022 93.493 14.9732 93.394C14.9442 93.2949 14.8936 93.2049 14.8257 93.1315L11.1154 89.1518C10.766 88.7773 10.9587 88.1238 11.4411 88.0468L16.55 87.2286C16.643 87.2133 16.7312 87.1734 16.8066 87.1125C16.882 87.0516 16.9425 86.9715 16.9825 86.8793L19.2293 81.8088C19.4375 81.3413 20.0391 81.3487 20.2469 81.8248Z" fill="url(#paint23_linear_230_719)"/>
<path d="M29.8692 22.0661L24.3934 33.1596C24.2934 33.362 24.1457 33.5371 23.963 33.6698C23.7803 33.8025 23.5681 33.8888 23.3447 33.9213L11.1001 35.7008C9.95777 35.8658 9.50125 37.2704 10.3281 38.0762L19.1885 46.7131C19.3502 46.8707 19.4711 47.0653 19.5409 47.28C19.6106 47.4947 19.6271 47.7232 19.5889 47.9458L17.4973 60.1408C17.3022 61.2786 18.4965 62.1463 19.518 61.6094L30.4701 55.8514C30.67 55.7464 30.8924 55.6915 31.1182 55.6915C31.344 55.6915 31.5664 55.7464 31.7663 55.8514L42.7183 61.6131C43.7403 62.1492 44.9342 61.2832 44.7391 60.1445L42.6474 47.9495C42.6094 47.7269 42.626 47.4984 42.6958 47.2837C42.7657 47.069 42.8866 46.8744 43.0483 46.7168L51.9082 38.0799C52.733 37.2741 52.2794 35.8703 51.1366 35.7045L38.8921 33.925C38.6686 33.8926 38.4564 33.8063 38.2737 33.6736C38.091 33.5409 37.9433 33.3658 37.8434 33.1633L32.3671 22.0698C31.8562 21.033 30.3802 21.033 29.8692 22.0661Z" fill="url(#paint24_linear_230_719)"/>
<path d="M29.3253 22.066L23.8494 33.1596C23.7494 33.362 23.6017 33.5371 23.419 33.6698C23.2363 33.8025 23.0242 33.8888 22.8007 33.9213L10.5562 35.7008C9.41383 35.8657 8.95772 37.2704 9.78417 38.0762L18.6446 46.7131C18.8062 46.8707 18.9272 47.0652 18.9969 47.28C19.0667 47.4947 19.0832 47.7232 19.045 47.9457L16.9533 60.1408C16.7582 61.2786 17.9526 62.1463 18.9741 61.6093L29.9257 55.8514C30.1257 55.7464 30.3482 55.6915 30.574 55.6915C30.7999 55.6915 31.0224 55.7464 31.2223 55.8514L42.1744 61.613C43.1963 62.1492 44.3906 61.2831 44.1951 60.1445L42.1035 47.9494C42.0653 47.7269 42.0818 47.4984 42.1515 47.2837C42.2213 47.0689 42.3422 46.8744 42.5039 46.7168L51.3655 38.0783C52.1903 37.2724 51.7367 35.8686 50.5935 35.7028L38.349 33.9233C38.1255 33.8908 37.9134 33.8045 37.7307 33.6718C37.548 33.5392 37.4003 33.3641 37.3002 33.1616L31.8244 22.0681C31.3126 21.033 29.8362 21.033 29.3253 22.066Z" fill="url(#paint25_linear_230_719)"/>
<g style="mix-blend-mode:multiply" opacity="0.3">
<path style="mix-blend-mode:multiply" d="M21.9483 53.1686C26.151 49.172 30.885 49.3947 32.7964 44.7767C34.938 39.6019 30.3777 35.9794 31.1588 29.6305C31.3481 28.0926 31.8578 26.3367 32.9886 24.4272L37.2994 33.1619C37.3994 33.3643 37.5471 33.5394 37.7298 33.6721C37.9125 33.8048 38.1247 33.8911 38.3481 33.9236L50.5927 35.7031C51.735 35.868 52.1911 37.2726 51.3647 38.0785L42.5043 46.7154C42.3426 46.873 42.2217 47.0675 42.1519 47.2823C42.0822 47.497 42.0657 47.7255 42.1039 47.948L44.1955 60.1431C44.3906 61.2809 43.1963 62.1486 42.1748 61.6116L31.2231 55.8537C31.0232 55.7487 30.8007 55.6938 30.5748 55.6938C30.349 55.6938 30.1265 55.7487 29.9265 55.8537L18.9745 61.6133C18.7081 61.7547 18.4028 61.8052 18.105 61.7572C17.8073 61.7092 17.5333 61.5652 17.3249 61.3473C18.4111 57.3656 20.184 54.8462 21.9483 53.1686Z" fill="url(#paint26_linear_230_719)"/>
</g>
<path d="M15.773 61.1813C15.773 61.1813 15.6584 60.6571 16.6679 60.4604C17.4593 60.3062 17.6762 60.121 17.4787 59.9936C17.2812 59.8662 16.8407 60.001 16.8407 60.001C16.8407 60.001 17.1512 59.1556 17.7719 58.6257C18.3926 58.0957 17.7245 58.1489 17.3442 58.2248C16.964 58.3007 16.0097 59.1482 15.8926 59.4707C15.7755 59.7932 14.9919 60.4914 14.9919 60.4914L15.773 61.1813Z" fill="url(#paint27_linear_230_719)"/>
<path d="M15.2191 59.9978L16.1594 61.0177C16.1594 61.0177 9.83196 65.2555 20.4393 66.2044L10.7479 76.0508C10.7479 76.0508 2.98696 66.957 15.2191 59.9978Z" fill="url(#paint28_linear_230_719)"/>
<path d="M42.2568 60.6733C42.2568 60.6733 42.7884 60.5995 42.6226 59.5842C42.4927 58.7882 42.5913 58.5206 42.7789 58.6616C42.9666 58.8027 42.9938 59.2625 42.9938 59.2625C42.9938 59.2625 43.6788 58.6781 43.9613 57.9123C44.2438 57.1465 44.4248 57.7915 44.485 58.1746C44.5452 58.5577 44.0821 59.7462 43.8202 59.9681C43.5584 60.19 43.1752 61.1665 43.1752 61.1665L42.2568 60.6733Z" fill="url(#paint29_linear_230_719)"/>
<path d="M21.1272 122.816C21.1272 122.816 24.6495 124.417 24.7072 124.672C24.7649 124.926 22.4419 124.586 21.4934 124.623C20.5448 124.66 19.765 124.38 19.8508 123.978C19.9366 123.576 20.2706 122.566 20.2706 122.566L21.1272 122.816Z" fill="url(#paint30_linear_230_719)"/>
<path d="M21.2559 121.517L21.0418 123.103C21.0418 123.103 20.4839 123.301 20.1094 123.067L19.9494 121.327L21.2559 121.517Z" fill="url(#paint31_linear_230_719)"/>
<path d="M4.66708 121.555L4.25716 122.215C4.20035 122.305 4.16274 122.407 4.14664 122.513C4.13054 122.619 4.13629 122.727 4.16354 122.83C4.30664 123.377 4.59286 124.443 4.7174 124.721C4.88772 125.1 7.16705 125.324 7.16705 125.324C7.16705 125.324 7.37036 125.038 6.89692 124.693C6.42349 124.347 6.11955 124.293 5.95253 123.783C5.78551 123.273 5.67416 121.831 5.67416 121.831L4.66708 121.555Z" fill="url(#paint32_linear_230_719)"/>
<path d="M6.37274 119.885C6.22304 120.004 5.49104 122.227 5.49104 122.227C5.49104 122.227 5.2539 122.53 4.80356 122.082C4.35322 121.635 4.59984 121.882 4.59984 121.882L4.68438 119.696L6.37274 119.885Z" fill="url(#paint33_linear_230_719)"/>
<path d="M23.1941 89.6534C23.3797 94.3844 23.3875 99.5245 23.1153 105.016C22.8089 111.199 22.1928 116.914 21.4166 122.094C21.128 122.104 20.8249 122.105 20.5094 122.094C20.2955 122.088 20.0883 122.078 19.8879 122.064C19.3748 120.699 18.9381 119.306 18.5798 117.892C18.1755 116.283 17.8711 114.651 17.6683 113.004C16.9899 107.645 17.7851 107.178 17.2345 103.207C16.747 99.6899 16.0538 99.5526 15.2397 94.5592C14.3568 89.1412 15.0142 88.3283 15.3338 88.0347C16.6963 86.7847 19.8932 87.6355 23.1941 89.6534Z" fill="url(#paint34_linear_230_719)"/>
<path style="mix-blend-mode:multiply" opacity="0.3" d="M15.3355 88.0347C16.6337 86.8424 19.6021 87.5641 22.7376 89.3841C19.1308 93.2812 18.7373 95.8092 19.1699 97.4498C19.6586 99.3035 21.1445 99.8376 21.1387 101.865C21.1317 104.356 18.8833 105.016 18.9312 107.652C18.9629 109.395 19.9506 109.378 20.184 111.529C20.4603 114.076 19.1695 114.954 19.5873 116.839C19.7675 117.65 20.2805 118.709 21.7429 119.801C21.6373 120.575 21.5293 121.341 21.4167 122.093C21.128 122.102 20.8249 122.103 20.5094 122.093C20.2955 122.086 20.0884 122.076 19.8879 122.062C19.3749 120.697 18.9382 119.305 18.5798 117.892C18.1755 116.283 17.8711 114.651 17.6684 113.004C16.9904 107.646 17.7851 107.178 17.2346 103.207C16.7471 99.6899 16.0539 99.5526 15.2398 94.5593C14.3585 89.1412 15.0159 88.3283 15.3355 88.0347Z" fill="url(#paint35_linear_230_719)"/>
<path d="M20.9597 89.5738C14.4437 99.1035 9.52472 109.632 6.39627 120.744C6.07181 120.895 5.71143 120.951 5.35661 120.905C4.90089 120.84 4.48337 120.614 4.1788 120.269C3.77807 117.775 3.68734 115.242 3.90867 112.725C4.01548 111.524 4.20436 109.524 4.96977 107.055C5.82715 104.289 6.41688 104.134 7.53531 101.208C8.69621 98.1711 8.41496 97.4139 9.52719 93.6124C10.1959 91.3351 11.0257 89.1081 12.0102 86.9485L20.9597 89.5738Z" fill="url(#paint36_linear_230_719)"/>
<path d="M22.1227 63.876C22.1227 63.876 22.0212 65.2068 21.5767 66.1916C21.175 67.082 19.1913 67.588 18.7868 67.7769C18.3822 67.9657 19.5089 68.5897 20.6554 68.741C21.8018 68.8924 25.0936 68.7328 25.6994 68.3155C26.3052 67.8981 25.2359 67.8977 24.4247 67.5707C23.6135 67.2436 23.1875 65.6241 23.3557 64.9C23.524 64.1758 22.1227 63.876 22.1227 63.876Z" fill="url(#paint37_linear_230_719)"/>
<path d="M23.776 62.8593C24.3798 62.0576 24.1224 60.4843 23.5839 60.2823C23.4296 60.2245 23.3253 60.3062 21.7891 61.5636C21.0262 62.1884 20.6554 62.5096 20.6344 62.9398C20.6216 63.202 20.7358 63.5171 20.9099 63.7361C20.9993 63.8499 21.1453 63.9802 21.4546 64.2198C21.7289 64.4322 21.7132 64.426 21.7961 64.4875C21.9945 64.6339 22.3636 64.869 22.9714 65.0846C22.951 64.9045 22.9464 64.7229 22.9578 64.5419C22.9721 64.3066 23.0165 64.074 23.0898 63.8499C23.2704 63.3451 23.5814 63.1192 23.776 62.8593Z" fill="url(#paint38_linear_230_719)"/>
<path d="M22.2311 64.9185C22.2311 64.9185 22.9792 65.5173 23.8911 65.1176C24.7072 64.7597 24.1492 62.8408 23.4708 62.6366C23.2444 62.5686 22.8675 62.6428 22.6068 62.8297C22.453 62.9398 22.4208 63.0321 22.166 63.2074C21.9305 63.3687 21.8468 63.3666 21.7924 63.461C21.7243 63.5794 21.726 63.8075 22.0885 64.2961C21.8707 64.1926 21.6567 64.2001 21.5441 64.3135C21.5069 64.3555 21.4821 64.407 21.4723 64.4623C21.4332 64.7188 21.728 64.9213 22.2311 64.9185Z" fill="url(#paint39_linear_230_719)"/>
<path d="M8.32465 91.2444C9.62082 92.4181 11.8651 92.5134 12.3554 92.5344C14.6616 92.6321 14.9911 91.6308 17.2725 91.7281C19.5609 91.8259 20.1642 92.8709 21.7866 92.4536C22.0753 92.3797 23.197 92.0531 24.3901 90.4938C27.7717 86.0746 24.9452 81.2124 28.3161 74.9612C28.8242 74.0189 29.2712 73.1904 30.1698 72.3013C33.0793 69.4244 35.8531 70.7342 39.5189 68.4247C42.5265 66.5306 44.5452 62.7233 43.6722 61.0073C43.2767 60.2295 42.934 60.3322 42.4024 60.2695C41.51 61.7834 39.3003 63.6298 36.7591 64.7045C34.3474 65.7243 32.4896 65.2369 28.7998 65.2888C26.5444 65.3202 22.6732 65.3746 19.6033 66.4732C11.9265 69.2215 9.08469 78.5668 8.24422 81.3299C7.50974 83.7449 5.90139 89.0496 8.32465 91.2444Z" fill="url(#paint40_linear_230_719)"/>
<path style="mix-blend-mode:multiply" opacity="0.3" d="M14.6125 89.1202C13.7753 88.0405 18.094 85.0663 17.5141 81.5964C17.0263 78.6749 13.5633 78.3834 12.6779 75.685C12.2952 74.5196 12.367 72.8222 13.9951 70.2966C10.425 74.1686 8.83642 79.381 8.24422 81.3279C7.50974 83.7433 5.90139 89.048 8.32464 91.2428C9.62081 92.4165 11.8651 92.5117 12.3554 92.5328C14.6616 92.6305 14.9911 91.6292 17.2725 91.7265C19.5609 91.8243 20.1642 92.8693 21.7866 92.4519C22.0753 92.3781 23.197 92.0515 24.39 90.4922C24.4078 90.4691 24.423 90.4456 24.4404 90.4221C23.5397 89.5635 22.4588 88.8711 21.1688 88.5828C17.9909 87.8739 15.2905 89.9965 14.6125 89.1202Z" fill="url(#paint41_linear_230_719)"/>
<defs>
<linearGradient id="paint0_linear_230_719" x1="64.2001" y1="43.7683" x2="43.7831" y2="-4.15821" gradientUnits="userSpaceOnUse">
<stop stop-color="#948DE3"/>
<stop offset="1" stop-color="#71EEF6"/>
</linearGradient>
<linearGradient id="paint1_linear_230_719" x1="86.9439" y1="22.924" x2="81.0932" y2="69.5065" gradientUnits="userSpaceOnUse">
<stop stop-color="#6165D7"/>
<stop offset="1" stop-color="#808CF9"/>
</linearGradient>
<linearGradient id="paint2_linear_230_719" x1="103.669" y1="70.428" x2="80.6011" y2="64.4149" gradientUnits="userSpaceOnUse">
<stop stop-color="#311944"/>
<stop offset="1" stop-color="#893976"/>
</linearGradient>
<linearGradient id="paint3_linear_230_719" x1="131.847" y1="55.2726" x2="96.7523" y2="55.6488" gradientUnits="userSpaceOnUse">
<stop stop-color="#311944"/>
<stop offset="1" stop-color="#893976"/>
</linearGradient>
<linearGradient id="paint4_linear_230_719" x1="88.3148" y1="20.2417" x2="52.8676" y2="96.7534" gradientUnits="userSpaceOnUse">
<stop stop-color="#FF9085"/>
<stop offset="1" stop-color="#FB6FBB"/>
</linearGradient>
<linearGradient id="paint5_linear_230_719" x1="93.2452" y1="21.6808" x2="57.3552" y2="99.1488" gradientUnits="userSpaceOnUse">
<stop stop-color="#FF9085"/>
<stop offset="1" stop-color="#FB6FBB"/>
</linearGradient>
<linearGradient id="paint6_linear_230_719" x1="66.7891" y1="26.7228" x2="28.9827" y2="53.2879" gradientUnits="userSpaceOnUse">
<stop stop-color="#E38DDD"/>
<stop offset="1" stop-color="#9571F6"/>
</linearGradient>
<linearGradient id="paint7_linear_230_719" x1="64.5149" y1="44.0261" x2="36.3874" y2="37.5362" gradientUnits="userSpaceOnUse">
<stop stop-color="#311944"/>
<stop offset="1" stop-color="#893976"/>
</linearGradient>
<linearGradient id="paint8_linear_230_719" x1="68.2204" y1="17.7126" x2="45.0764" y2="67.6686" gradientUnits="userSpaceOnUse">
<stop stop-color="#FFC444"/>
<stop offset="1" stop-color="#F36F56"/>
</linearGradient>
<linearGradient id="paint9_linear_230_719" x1="60.9943" y1="23.0422" x2="43.9177" y2="59.9021" gradientUnits="userSpaceOnUse">
<stop stop-color="#FFC444"/>
<stop offset="1" stop-color="#F36F56"/>
</linearGradient>
<linearGradient id="paint10_linear_230_719" x1="86.7062" y1="56.174" x2="97.6009" y2="78.827" gradientUnits="userSpaceOnUse">
<stop stop-color="#FFC444"/>
<stop offset="1" stop-color="#F36F56"/>
</linearGradient>
<linearGradient id="paint11_linear_230_719" x1="89.0719" y1="55.0361" x2="99.967" y2="77.6892" gradientUnits="userSpaceOnUse">
<stop stop-color="#FFC444"/>
<stop offset="1" stop-color="#F36F56"/>
</linearGradient>
<linearGradient id="paint12_linear_230_719" x1="120.842" y1="57.6811" x2="30.8483" y2="42.6398" gradientUnits="userSpaceOnUse">
<stop stop-color="#FFC444"/>
<stop offset="1" stop-color="#F36F56"/>
</linearGradient>
<linearGradient id="paint13_linear_230_719" x1="88.3147" y1="20.242" x2="52.8676" y2="96.7536" gradientUnits="userSpaceOnUse">
<stop stop-color="#FF9085"/>
<stop offset="1" stop-color="#FB6FBB"/>
</linearGradient>
<linearGradient id="paint14_linear_230_719" x1="93.2452" y1="21.681" x2="57.3552" y2="99.1491" gradientUnits="userSpaceOnUse">
<stop stop-color="#FF9085"/>
<stop offset="1" stop-color="#FB6FBB"/>
</linearGradient>
<linearGradient id="paint15_linear_230_719" x1="60.9027" y1="43.3991" x2="34.8702" y2="36.6133" gradientUnits="userSpaceOnUse">
<stop stop-color="#311944"/>
<stop offset="1" stop-color="#893976"/>
</linearGradient>
<linearGradient id="paint16_linear_230_719" x1="121.731" y1="52.3484" x2="31.7373" y2="37.3065" gradientUnits="userSpaceOnUse">
<stop stop-color="#311944"/>
<stop offset="1" stop-color="#893976"/>
</linearGradient>
<linearGradient id="paint17_linear_230_719" x1="121.841" y1="52.4538" x2="31.8472" y2="37.412" gradientUnits="userSpaceOnUse">
<stop stop-color="#311944"/>
<stop offset="1" stop-color="#893976"/>
</linearGradient>
<linearGradient id="paint18_linear_230_719" x1="60.1333" y1="43.3554" x2="40.5578" y2="38.349" gradientUnits="userSpaceOnUse">
<stop stop-color="#311944"/>
<stop offset="1" stop-color="#893976"/>
</linearGradient>
<linearGradient id="paint19_linear_230_719" x1="92.1344" y1="136.017" x2="43.0853" y2="61.5876" gradientUnits="userSpaceOnUse">
<stop stop-color="#EBEFF2"/>
<stop offset="1" stop-color="white"/>
</linearGradient>
<linearGradient id="paint20_linear_230_719" x1="75.8777" y1="91.8585" x2="60.4069" y2="134.867" gradientUnits="userSpaceOnUse">
<stop stop-color="#FFC444"/>
<stop offset="1" stop-color="#F36F56"/>
</linearGradient>
<linearGradient id="paint21_linear_230_719" x1="58.0785" y1="85.4556" x2="42.6078" y2="128.465" gradientUnits="userSpaceOnUse">
<stop stop-color="#FFC444"/>
<stop offset="1" stop-color="#F36F56"/>
</linearGradient>
<linearGradient id="paint22_linear_230_719" x1="41.6372" y1="79.649" x2="26.9223" y2="121.647" gradientUnits="userSpaceOnUse">
<stop stop-color="#FFC444"/>
<stop offset="1" stop-color="#F36F56"/>
</linearGradient>
<linearGradient id="paint23_linear_230_719" x1="10.9364" y1="90.776" x2="28.2327" y2="90.776" gradientUnits="userSpaceOnUse">
<stop stop-color="#FFC444"/>
<stop offset="1" stop-color="#FF9682"/>
</linearGradient>
<linearGradient id="paint24_linear_230_719" x1="52.3305" y1="41.5321" x2="9.90581" y2="41.5321" gradientUnits="userSpaceOnUse">
<stop stop-color="#311944"/>
<stop offset="1" stop-color="#893976"/>
</linearGradient>
<linearGradient id="paint25_linear_230_719" x1="17.9847" y1="19.7034" x2="59.8828" y2="93.9773" gradientUnits="userSpaceOnUse">
<stop stop-color="#FFC444"/>
<stop offset="1" stop-color="#F36F56"/>
</linearGradient>
<linearGradient id="paint26_linear_230_719" x1="18.0053" y1="19.6921" x2="59.9034" y2="93.966" gradientUnits="userSpaceOnUse">
<stop stop-color="#FFC444"/>
<stop offset="1" stop-color="#F36F56"/>
</linearGradient>
<linearGradient id="paint27_linear_230_719" x1="16.997" y1="60.7424" x2="16.2226" y2="58.6478" gradientUnits="userSpaceOnUse">
<stop stop-color="#311944"/>
<stop offset="1" stop-color="#893976"/>
</linearGradient>
<linearGradient id="paint28_linear_230_719" x1="6.72989" y1="58.768" x2="14.3894" y2="69.4595" gradientUnits="userSpaceOnUse">
<stop stop-color="#617BD7"/>
<stop offset="1" stop-color="#808CF9"/>
</linearGradient>
<linearGradient id="paint29_linear_230_719" x1="42.2568" y1="59.3606" x2="44.49" y2="59.3606" gradientUnits="userSpaceOnUse">
<stop stop-color="#311944"/>
<stop offset="1" stop-color="#893976"/>
</linearGradient>
<linearGradient id="paint30_linear_230_719" x1="22.8337" y1="117.262" x2="21.9586" y2="128.399" gradientUnits="userSpaceOnUse">
<stop stop-color="#192244"/>
<stop offset="1" stop-color="#4E39A0"/>
</linearGradient>
<linearGradient id="paint31_linear_230_719" x1="20.5746" y1="123.462" x2="20.7338" y2="111.927" gradientUnits="userSpaceOnUse">
<stop stop-color="#FFC444"/>
<stop offset="1" stop-color="#F36F56"/>
</linearGradient>
<linearGradient id="paint32_linear_230_719" x1="6.29688" y1="115.962" x2="5.42177" y2="127.1" gradientUnits="userSpaceOnUse">
<stop stop-color="#192044"/>
<stop offset="1" stop-color="#6039A0"/>
</linearGradient>
<linearGradient id="paint33_linear_230_719" x1="5.41927" y1="123.253" x2="5.57846" y2="111.718" gradientUnits="userSpaceOnUse">
<stop stop-color="#FFC444"/>
<stop offset="1" stop-color="#F36F56"/>
</linearGradient>
<linearGradient id="paint34_linear_230_719" x1="23.3277" y1="104.776" x2="14.7989" y2="104.776" gradientUnits="userSpaceOnUse">
<stop stop-color="#444B8C"/>
<stop offset="1" stop-color="#3E4177"/>
</linearGradient>
<linearGradient id="paint35_linear_230_719" x1="23.3278" y1="104.776" x2="14.7989" y2="104.776" gradientUnits="userSpaceOnUse">
<stop stop-color="#444B8C"/>
<stop offset="1" stop-color="#3E4177"/>
</linearGradient>
<linearGradient id="paint36_linear_230_719" x1="20.9597" y1="103.935" x2="3.79073" y2="103.935" gradientUnits="userSpaceOnUse">
<stop stop-color="#444B8C"/>
<stop offset="1" stop-color="#3E4177"/>
</linearGradient>
<linearGradient id="paint37_linear_230_719" x1="21.9915" y1="65.6584" x2="22.959" y2="73.2354" gradientUnits="userSpaceOnUse">
<stop stop-color="#311944"/>
<stop offset="1" stop-color="#893976"/>
</linearGradient>
<linearGradient id="paint38_linear_230_719" x1="22.5397" y1="64.1798" x2="22.1099" y2="59.0207" gradientUnits="userSpaceOnUse">
<stop stop-color="#26264F"/>
<stop offset="1" stop-color="#444B8C"/>
</linearGradient>
<linearGradient id="paint39_linear_230_719" x1="19.8656" y1="60.8283" x2="23.8424" y2="65.0199" gradientUnits="userSpaceOnUse">
<stop stop-color="#311944"/>
<stop offset="1" stop-color="#893976"/>
</linearGradient>
<linearGradient id="paint40_linear_230_719" x1="28.1784" y1="101.089" x2="24.5596" y2="66.2823" gradientUnits="userSpaceOnUse">
<stop stop-color="#6165D7"/>
<stop offset="1" stop-color="#80B0F9"/>
</linearGradient>
<linearGradient id="paint41_linear_230_719" x1="17.1026" y1="102.331" x2="13.4483" y2="67.1851" gradientUnits="userSpaceOnUse">
<stop stop-color="#AA80F9"/>
<stop offset="1" stop-color="#6165D7"/>
</linearGradient>
</defs>
</svg>
