<svg width="328" height="340" viewBox="0 0 328 340" fill="none" xmlns="http://www.w3.org/2000/svg">
<path d="M77.6422 36.5343C66.9137 51.9497 79.4935 76.9414 63.5736 88.5357C48.0777 99.8212 29.0402 81.3219 14.4358 91.0369C-7.22919 105.448 -3.27274 171.389 28.4026 212.36C37.9286 224.681 45.8875 229.475 49.4133 243.41C56.9828 273.333 30.3792 291.132 35.442 305.931C46.8416 339.252 222.152 367.212 292.496 267.071C325.347 220.3 330.263 152.763 300.904 101.469C247.869 8.77964 101.717 1.945 77.6422 36.5343Z" fill="#F4F7FA"/>
<path d="M211.233 246.823C222.544 238.835 224.567 217.911 221.797 203.869C218.564 187.474 210.095 187.039 208.573 174.093C205.737 149.989 233.931 141.609 233 117.075C232.238 97.0169 213.108 95.0068 213.276 72.7568C213.396 56.7004 223.416 50.0302 218.911 36.0175C218.526 34.8195 214.192 21.9635 203.212 18.9589C192.13 15.9264 180.759 24.7029 175.135 31.7725C164.74 44.841 172.435 54.0258 165.798 74.0398C156.762 101.288 137.151 100.392 134.645 121.83C132.574 139.533 145.47 144.227 142.785 163.811C140.292 181.996 128.267 184.556 127.762 196.95C126.606 225.469 188.16 263.115 211.233 246.823Z" fill="url(#paint0_linear_230_528)"/>
<g style="mix-blend-mode:soft-light" opacity="0.7">
<path d="M194.921 260.046C194.966 260.043 195.01 260.025 195.046 259.996C195.081 259.966 195.107 259.927 195.119 259.882C195.132 259.838 195.13 259.791 195.114 259.747C195.099 259.704 195.07 259.667 195.032 259.64C184.491 253.449 175.709 245.322 168.928 235.493C162.505 226.178 155.865 216.549 156.399 204.604C156.801 195.571 161.04 190.703 166.409 184.54C171.637 178.537 178.143 171.067 182.702 157.211C185.305 149.297 188.545 139.45 186.034 127.606C184.572 120.705 181.882 116.814 179.508 113.381C177.023 109.787 175.061 106.949 175.449 101.91C176.082 93.6859 180.52 88.3748 185.657 82.2359C188.832 78.4405 192.114 74.5176 195.003 69.3978C203.137 54.9947 203.366 35.6463 195.687 11.8929C195.669 11.838 195.63 11.7924 195.579 11.7662C195.527 11.74 195.468 11.7352 195.413 11.753C195.358 11.7708 195.312 11.8097 195.286 11.8611C195.26 11.9125 195.255 11.9722 195.273 12.0271C202.913 35.6597 202.695 54.8907 194.624 69.1875C191.754 74.2704 188.485 78.1799 185.324 81.9596C180.138 88.1611 175.659 93.517 175.015 101.88C174.615 107.072 176.716 110.113 179.154 113.632C181.503 117.031 184.169 120.883 185.613 127.699C188.098 139.43 184.879 149.214 182.293 157.077C177.76 170.851 171.286 178.284 166.084 184.259C160.66 190.485 156.376 195.403 155.968 204.588C155.43 216.68 162.112 226.371 168.574 235.741C175.398 245.628 184.222 253.795 194.819 260.015C194.85 260.033 194.885 260.044 194.921 260.046Z" fill="white"/>
</g>
<g style="mix-blend-mode:soft-light" opacity="0.7">
<path d="M186.611 133.505C186.664 133.504 186.716 133.485 186.756 133.45C204.857 117.275 213.36 102.254 217.304 92.5012C221.585 81.917 221.575 75.0611 221.575 74.9929C221.576 74.9635 221.571 74.9343 221.56 74.907C221.549 74.8797 221.532 74.8551 221.511 74.8347C221.49 74.8143 221.465 74.7986 221.437 74.7887C221.41 74.7787 221.38 74.7747 221.351 74.777C221.322 74.7773 221.293 74.7833 221.267 74.7948C221.24 74.8062 221.216 74.8228 221.196 74.8437C221.176 74.8645 221.161 74.8891 221.15 74.9161C221.14 74.9431 221.135 74.9718 221.136 75.0007C221.136 75.0678 221.136 81.8577 216.885 92.3692C212.957 102.073 204.489 117.021 186.459 133.129C186.418 133.168 186.393 133.222 186.39 133.279C186.387 133.336 186.406 133.393 186.443 133.436C186.464 133.459 186.491 133.476 186.519 133.488C186.548 133.5 186.579 133.505 186.611 133.505Z" fill="white"/>
</g>
<g style="mix-blend-mode:soft-light" opacity="0.7">
<path d="M177.955 168.266C178 168.266 178.044 168.253 178.081 168.227C178.117 168.201 178.145 168.164 178.16 168.122C178.176 168.079 178.177 168.033 178.165 167.99C178.153 167.947 178.127 167.908 178.092 167.88C168.121 159.732 160.54 150.497 155.562 140.429C151.598 132.443 149.238 123.757 148.616 114.863C147.55 99.6825 151.88 88.7225 151.924 88.6129C151.945 88.5595 151.945 88.4997 151.922 88.4467C151.9 88.3938 151.857 88.3519 151.804 88.3304C151.75 88.3089 151.69 88.3095 151.637 88.332C151.584 88.3546 151.543 88.3973 151.521 88.4507C151.476 88.5625 147.112 99.5975 148.181 114.873C148.804 123.825 151.177 132.568 155.166 140.606C160.171 150.735 167.793 160.024 177.817 168.215C177.856 168.247 177.904 168.265 177.955 168.266Z" fill="white"/>
</g>
<g style="mix-blend-mode:soft-light" opacity="0.7">
<path d="M161.518 225.697C161.539 225.698 161.559 225.695 161.579 225.688C188.285 217.858 202.223 203.599 209.213 193.025C216.793 181.555 218.068 171.8 218.079 171.703C218.082 171.674 218.08 171.645 218.073 171.618C218.065 171.59 218.052 171.565 218.034 171.542C218.017 171.52 217.995 171.501 217.97 171.487C217.945 171.473 217.918 171.464 217.889 171.46C217.861 171.457 217.832 171.459 217.805 171.467C217.777 171.474 217.751 171.487 217.729 171.505C217.707 171.523 217.688 171.544 217.674 171.569C217.66 171.594 217.651 171.622 217.647 171.65C217.636 171.746 216.369 181.418 208.837 192.806C201.886 203.321 188.023 217.481 161.457 225.276C161.406 225.29 161.362 225.322 161.333 225.366C161.304 225.41 161.292 225.463 161.299 225.516C161.307 225.568 161.333 225.616 161.374 225.65C161.414 225.684 161.465 225.703 161.518 225.702V225.697Z" fill="white"/>
</g>
<g style="mix-blend-mode:soft-light" opacity="0.7">
<path d="M195.697 66.8081C195.739 66.8083 195.781 66.7961 195.816 66.773C195.852 66.75 195.88 66.717 195.897 66.6783C195.914 66.6395 195.919 66.5967 195.912 66.5549C195.905 66.5132 195.886 66.4745 195.857 66.4435C180.835 50.1544 179.005 33.1674 180.115 21.7856C181.317 9.45086 186.129 0.867861 186.178 0.78061C186.192 0.755785 186.201 0.728427 186.204 0.700095C186.208 0.671762 186.206 0.643012 186.198 0.615487C186.191 0.587961 186.178 0.562197 186.16 0.539668C186.143 0.51714 186.121 0.498284 186.096 0.484182C186.071 0.47008 186.044 0.461005 186.015 0.457477C185.987 0.453949 185.958 0.456036 185.931 0.463618C185.903 0.471201 185.877 0.484132 185.855 0.501671C185.832 0.51921 185.814 0.541016 185.799 0.565841C185.75 0.651973 180.893 9.31775 179.682 21.7431C178.563 33.2132 180.407 50.3312 195.537 66.7388C195.558 66.7604 195.582 66.7777 195.61 66.7897C195.637 66.8016 195.667 66.8078 195.697 66.8081Z" fill="white"/>
</g>
<path d="M169.239 264.289C171.23 266.399 177.421 269.236 179.341 269.31C192.111 269.802 215.961 272.277 226.411 263.717C228.201 262.254 223.881 252.666 224.745 250.258C223.478 243.477 222.619 241.204 224.58 234.166C230.372 213.388 274.01 219.528 262.127 184.165C253.424 158.263 233.219 145.714 267.631 124.208C302.042 102.702 342.894 33.4111 294.939 15.3972C267.421 5.05914 254.178 45.4293 226.216 50.1241C199.643 54.5851 189.573 74.5286 192.905 103.779C196.237 133.029 179.186 128.482 156.254 135.918C128.706 144.85 149.637 182.005 160.764 198.336C169.724 211.491 183.667 251.022 169.239 264.289Z" fill="url(#paint1_linear_230_528)"/>
<g style="mix-blend-mode:soft-light" opacity="0.7">
<g style="mix-blend-mode:soft-light">
<path d="M201.724 266.903L202.331 266.797C185.859 173.199 226.703 79.9719 311.588 17.4132L311.222 16.9165C270.993 46.5594 239.498 84.5917 220.143 126.875C199.794 171.329 193.425 219.75 201.724 266.903Z" fill="#FCFDFE"/>
</g>
<g style="mix-blend-mode:soft-light">
<path d="M144.378 138.317C165.441 153.549 189.88 186.856 198.853 212.564L199.436 212.36C190.425 186.552 165.887 153.111 144.737 137.817L144.378 138.317Z" fill="#FCFDFE"/>
</g>
<g style="mix-blend-mode:soft-light">
<path d="M198.7 248.493L199.314 248.558C200.82 234.485 209.382 221.712 224.766 210.598C236.045 202.448 250.659 195.363 268.203 189.539L268.009 188.952C250.405 194.797 235.734 201.911 224.405 210.094C208.874 221.32 200.23 234.233 198.7 248.493Z" fill="#FCFDFE"/>
</g>
<g style="mix-blend-mode:soft-light">
<path d="M223.123 120.978L223.732 121.075C227.936 94.6927 215.798 69.3576 204.876 52.7498L204.36 53.0853C215.22 69.6059 227.295 94.7912 223.123 120.978Z" fill="#FCFDFE"/>
</g>
<g style="mix-blend-mode:soft-light">
<path d="M255.914 69.3586L256.311 69.8307C279.329 50.4476 310.881 48.8872 327.639 49.6858L327.669 49.0695C310.821 48.2663 279.092 49.8335 255.914 69.3586Z" fill="#FCFDFE"/>
</g>
</g>
<path d="M220.955 230.456C226.557 231.54 232.671 229.404 236.311 224.611L287.642 157.02C292.316 150.867 291.11 142.206 284.923 137.634C278.692 133.03 266.989 133.489 262.215 139.697L209.853 207.898C204.916 214.329 206.299 223.128 212.912 227.507C214.549 228.585 219.107 230.094 220.955 230.456Z" fill="url(#paint2_linear_230_528)"/>
<g style="mix-blend-mode:multiply" opacity="0.3">
<path d="M284.923 137.634C278.692 133.03 266.988 133.489 262.215 139.697L214.339 202.057C219.627 202.075 225.463 203.719 232.381 200.249C243.903 194.473 242.033 182.737 251.909 175.291C256.423 171.887 263.884 169.01 277.031 170.987L287.638 157.02C292.316 150.865 291.111 142.206 284.923 137.634Z" fill="#97A6B7"/>
</g>
<path d="M307.849 127.542C307.579 127.472 307.304 127.421 307.026 127.389L287.57 122.088L274.343 172.822L293.248 177.476C293.699 177.725 294.179 177.918 294.677 178.049C301.365 179.792 309.733 169.899 313.37 155.951C317.007 142.004 314.536 129.285 307.849 127.542Z" fill="url(#paint3_linear_230_528)"/>
<path d="M287.57 122.088C290.556 140.908 286.168 157.742 274.343 172.823L117.03 181.652L152.653 38.8621L287.57 122.088Z" fill="url(#paint4_linear_230_528)"/>
<path style="mix-blend-mode:multiply" opacity="0.25" d="M167.12 150.01C182.284 148.379 191.791 129.475 207.989 132.978C220.699 135.726 221.3 148.921 233.965 150.816C246.926 152.755 252.588 139.712 267.958 138.601C274.947 138.096 281.559 140.25 287.599 143.791C285.846 154.109 281.428 163.786 274.343 172.822L117.03 181.651L138.221 135.54C150.357 147.62 159.773 150.8 167.12 150.01Z" fill="url(#paint5_linear_230_528)"/>
<path d="M109.507 181.695C90.0068 176.612 82.7926 139.524 93.3933 98.8563C103.994 58.1885 128.395 29.3414 147.895 34.4244C167.395 39.5074 174.61 76.5957 164.009 117.263C153.408 157.931 129.007 186.778 109.507 181.695Z" fill="url(#paint6_linear_230_528)"/>
<path d="M110.155 179.198C106.017 178.119 102.4 175.322 99.4101 170.885C96.3675 166.369 94.1079 160.395 92.6985 153.128C89.7275 137.854 90.8629 118.811 95.8944 99.5081C100.926 80.2056 109.233 63.0329 119.282 51.1522C124.054 45.4955 128.948 41.3869 133.808 38.9259C138.583 36.5131 143.105 35.8364 147.245 36.9125C151.385 37.9886 154.999 40.7884 157.983 45.2259C161.027 49.7417 163.287 55.7161 164.695 62.9825C165.936 69.3686 166.461 76.4146 166.283 83.8623C166.035 94.2272 156.736 102.689 153.809 113.921C150.694 125.865 154.019 139.673 148.76 149.237C145.516 155.129 141.937 160.423 138.111 164.958C133.33 170.61 128.442 174.72 123.582 177.176C118.816 179.595 114.295 180.272 110.155 179.198Z" fill="url(#paint7_linear_230_528)"/>
<path d="M125.543 108.264C120.679 126.92 129.17 144.954 144.293 148.492C159.18 151.976 174.914 140.058 179.64 121.921C184.367 103.784 176.408 85.8858 161.654 81.8868C146.67 77.8252 130.405 89.6085 125.543 108.264Z" fill="url(#paint8_linear_230_528)"/>
<path style="mix-blend-mode:multiply" opacity="0.3" d="M127.995 108.58C124.384 122.433 127.535 135.001 134.93 136.629C142.209 138.232 150.873 128.595 154.385 115.127C157.896 101.659 155.003 89.1554 147.824 87.1699C140.53 85.1541 131.607 94.726 127.995 108.58Z" fill="url(#paint9_linear_230_528)"/>
<path d="M220.955 230.456C226.557 231.54 232.671 229.405 236.311 224.611L287.642 157.02C292.316 150.868 291.11 142.206 284.923 137.635C278.692 133.031 266.988 133.489 262.215 139.697L209.853 207.898C204.916 214.329 206.299 223.128 212.912 227.507C214.549 228.586 219.107 230.095 220.955 230.456Z" fill="url(#paint10_linear_230_528)"/>
<path style="mix-blend-mode:multiply" opacity="0.3" d="M284.923 137.635C278.692 133.031 266.988 133.489 262.215 139.697L214.339 202.057C219.627 202.075 225.463 203.719 232.381 200.249C243.903 194.473 242.032 182.738 251.909 175.291C256.423 171.887 263.884 169.01 277.031 170.987L287.638 157.02C292.316 150.865 291.111 142.206 284.923 137.635Z" fill="url(#paint11_linear_230_528)"/>
<path d="M307.849 127.543C307.578 127.472 307.304 127.421 307.026 127.389L287.569 122.088L274.343 172.822L293.247 177.476C293.698 177.726 294.179 177.918 294.677 178.05C301.365 179.792 309.733 169.9 313.37 155.952C317.006 142.004 314.535 129.285 307.849 127.543Z" fill="url(#paint12_linear_230_528)"/>
<path d="M287.569 122.088C290.556 140.909 286.168 157.742 274.343 172.823L117.03 181.653L152.653 38.8623L287.569 122.088Z" fill="url(#paint13_linear_230_528)"/>
<path style="mix-blend-mode:multiply" opacity="0.25" d="M167.12 150.01C182.284 148.379 191.791 129.475 207.989 132.978C220.699 135.726 221.3 148.921 233.965 150.816C246.926 152.755 252.587 139.712 267.958 138.601C274.947 138.096 281.559 140.25 287.599 143.791C285.846 154.109 281.428 163.786 274.343 172.822L117.03 181.651L138.221 135.54C150.357 147.62 159.773 150.8 167.12 150.01Z" fill="url(#paint14_linear_230_528)"/>
<path d="M109.507 181.696C90.0067 176.613 82.7925 139.524 93.3932 98.8565C103.994 58.1888 128.395 29.3416 147.895 34.4246C167.395 39.5076 174.609 76.5959 164.009 117.264C153.408 157.931 129.007 186.779 109.507 181.696Z" fill="url(#paint15_linear_230_528)"/>
<path d="M110.155 179.198C106.016 178.119 102.4 175.323 99.41 170.885C96.3674 166.369 94.1078 160.395 92.6984 153.128C89.7274 137.854 90.8628 118.811 95.8942 99.5084C100.926 80.2058 109.232 63.0331 119.282 51.1525C124.054 45.4957 128.948 41.3871 133.808 38.9262C138.583 36.5134 143.105 35.8366 147.245 36.9127C151.385 37.9888 154.999 40.7886 157.983 45.2261C161.027 49.7419 163.286 55.7163 164.695 62.9828C165.936 69.3688 166.461 76.4149 166.283 83.8625C166.035 94.2275 156.736 102.69 153.809 113.921C150.694 125.865 154.019 139.673 148.76 149.237C145.516 155.13 141.937 160.423 138.111 164.959C133.33 170.61 128.442 174.721 123.582 177.176C118.815 179.596 114.295 180.272 110.155 179.198Z" fill="url(#paint16_linear_230_528)"/>
<mask id="mask0_230_528" style="mask-type:alpha" maskUnits="userSpaceOnUse" x="91" y="36" width="76" height="144">
<path d="M110.453 179.485C106.314 178.405 102.698 175.609 99.708 171.171C96.6654 166.656 94.4058 160.681 92.9964 153.415C90.0254 138.14 91.1608 119.097 96.1922 99.7947C101.224 80.4922 109.53 63.3195 119.58 51.4388C124.352 45.7821 129.246 41.6735 134.106 39.2126C138.881 36.7997 143.403 36.123 147.543 37.1991C151.683 38.2752 155.297 41.075 158.281 45.5125C161.325 50.0283 163.584 56.0027 164.993 63.2691C166.234 69.6552 166.759 76.7013 166.581 84.1489C166.333 94.5138 157.034 102.976 154.107 114.208C150.992 126.151 154.317 139.959 149.058 149.523C145.814 155.416 142.235 160.709 138.409 165.245C133.628 170.896 128.74 175.007 123.88 177.462C119.113 179.882 114.593 180.559 110.453 179.485Z" fill="url(#paint17_linear_230_528)"/>
</mask>
<g mask="url(#mask0_230_528)">
<path d="M127.662 108.265C122.89 126.921 131.221 144.955 146.058 148.492C160.664 151.976 176.102 140.059 180.739 121.922C185.375 103.785 177.567 85.886 163.092 81.887C148.39 77.8254 132.432 89.6087 127.662 108.265Z" fill="url(#paint18_linear_230_528)"/>
</g>
<g style="mix-blend-mode:multiply" opacity="0.3">
<path d="M129.012 108.58C125.533 122.433 128.569 135.001 135.695 136.629C142.708 138.232 151.056 128.595 154.439 115.127C157.822 101.659 155.035 89.1556 148.118 87.1701C141.09 85.1544 132.492 94.7262 129.012 108.58Z" fill="#97A6B7"/>
</g>
<path d="M30.7092 203.515L296.368 196.348C310.099 195.977 321.403 207.051 321.403 221.096V274.316C321.403 288.356 310.099 299.325 296.368 298.824L30.7092 289.12C21.2749 288.776 13.7233 279.254 13.7233 267.85V224.623C13.7233 213.219 21.2749 203.77 30.7092 203.515Z" fill="#97A6B7"/>
<path d="M296.368 295.487C308.236 295.895 318.019 286.369 318.019 274.244V221.136C318.019 209.011 308.235 199.391 296.367 199.688L30.708 206.304C22.5367 206.508 15.9615 214.714 15.9615 224.598V267.903C15.9615 277.788 22.5367 286.056 30.708 286.338L296.368 295.487Z" fill="url(#paint19_linear_230_528)"/>
<path d="M263.006 220.698L255.788 235.952C255.662 236.226 255.47 236.464 255.23 236.646C254.99 236.828 254.709 236.948 254.412 236.996L238.536 239.431C237.07 239.655 236.487 241.551 237.546 242.64L248.987 254.416C249.198 254.636 249.355 254.902 249.446 255.193C249.536 255.485 249.558 255.793 249.508 256.094L246.79 272.64C246.537 274.182 248.088 275.395 249.416 274.694L263.802 267.103C264.068 266.963 264.365 266.893 264.666 266.898C264.966 266.903 265.261 266.984 265.522 267.133L280.21 275.382C281.595 276.159 283.215 274.989 282.95 273.401L280.115 256.415C280.062 256.107 280.083 255.791 280.178 255.493C280.272 255.195 280.437 254.924 280.658 254.703L292.739 242.734C293.876 241.608 293.249 239.643 291.678 239.411L275.044 236.95C274.741 236.904 274.454 236.784 274.208 236.601C273.962 236.418 273.766 236.177 273.635 235.9L266.32 220.65C265.642 219.244 263.683 219.266 263.006 220.698Z" fill="#D8DEE8"/>
<path d="M204.514 221.407L197.819 236.096C197.706 236.356 197.53 236.584 197.308 236.76C197.085 236.936 196.822 237.053 196.542 237.102L181.808 239.451C180.448 239.668 179.907 241.495 180.889 242.544L191.505 253.881C191.703 254.097 191.85 254.355 191.934 254.636C192.017 254.917 192.037 255.213 191.99 255.502L189.467 271.443C189.232 272.928 190.671 274.097 191.904 273.42L205.249 266.099C205.494 265.964 205.77 265.896 206.05 265.901C206.33 265.906 206.603 265.984 206.844 266.127L220.458 274.055C221.74 274.802 223.241 273.675 222.996 272.147L220.365 255.796C220.316 255.502 220.336 255.201 220.423 254.916C220.51 254.63 220.662 254.369 220.868 254.153L232.065 242.632C233.117 241.548 232.537 239.656 231.083 239.434L215.672 237.068C215.388 237.021 215.12 236.904 214.892 236.729C214.664 236.553 214.484 236.324 214.366 236.061L207.588 221.369C206.958 220.007 205.141 220.027 204.514 221.407Z" fill="url(#paint20_linear_230_528)"/>
<path d="M150.197 221.578L143.965 235.742C143.864 235.99 143.702 236.208 143.495 236.377C143.288 236.547 143.042 236.662 142.779 236.712L129.068 238.974C127.801 239.182 127.297 240.945 128.212 241.957L138.096 252.897C138.281 253.109 138.417 253.359 138.494 253.63C138.571 253.901 138.588 254.185 138.543 254.463L136.194 269.841C135.976 271.273 137.313 272.4 138.461 271.743L150.878 264.673C151.105 264.544 151.362 264.478 151.623 264.483C151.884 264.488 152.139 264.562 152.361 264.699L165.013 272.333C166.204 273.052 167.6 271.963 167.372 270.491L164.931 254.733C164.885 254.451 164.903 254.162 164.983 253.888C165.064 253.614 165.206 253.362 165.397 253.15L175.8 242.041C176.778 240.996 176.239 239.174 174.889 238.959L160.571 236.678C160.303 236.63 160.052 236.515 159.84 236.345C159.628 236.175 159.462 235.954 159.357 235.703L153.052 221.543C152.466 220.228 150.781 220.251 150.197 221.578Z" fill="url(#paint21_linear_230_528)"/>
<path d="M263.683 220.692L256.507 235.937C256.242 236.499 255.73 236.889 255.138 236.98L239.321 239.414C237.859 239.64 237.277 241.539 238.333 242.63L249.739 254.41C249.954 254.644 250.112 254.914 250.201 255.204C250.29 255.494 250.31 255.797 250.258 256.093L247.551 272.659C247.298 274.207 248.842 275.411 250.166 274.706L264.473 267.077C264.731 266.938 265.029 266.866 265.332 266.87C265.635 266.875 265.93 266.956 266.182 267.103L280.754 275.299C282.124 276.073 283.729 274.898 283.467 273.314L280.656 256.368C280.601 256.067 280.621 255.759 280.714 255.465C280.806 255.172 280.97 254.898 281.193 254.664L293.154 242.715C294.278 241.592 293.658 239.632 292.106 239.401L275.635 236.95C275.03 236.86 274.508 236.467 274.239 235.9L266.978 220.66C266.302 219.242 264.355 219.264 263.683 220.692Z" fill="#D8DEE8"/>
<path d="M99.8792 222.358L94.092 235.633C94.0014 235.862 93.8529 236.066 93.6602 236.225C93.4675 236.384 93.2368 236.493 92.9894 236.542L80.2412 238.661C79.064 238.858 78.5946 240.507 79.4452 241.461L88.636 251.717C88.8088 251.918 88.9356 252.153 89.0079 252.406C89.0801 252.659 89.0963 252.924 89.0552 253.183L86.8734 267.601C86.6694 268.943 87.9147 269.998 88.9805 269.385L100.517 262.75C100.726 262.628 100.966 262.565 101.209 262.57C101.453 262.574 101.69 262.644 101.895 262.773L113.644 269.918C114.751 270.591 116.045 269.57 115.834 268.191L113.568 253.423C113.525 253.16 113.541 252.891 113.616 252.635C113.691 252.378 113.822 252.141 114.001 251.94L123.656 241.539C124.564 240.562 124.062 238.854 122.809 238.652L109.511 236.512C109.26 236.464 109.025 236.356 108.828 236.196C108.631 236.036 108.478 235.83 108.384 235.598L102.528 222.326C101.991 221.094 100.421 221.113 99.8792 222.358Z" fill="url(#paint22_linear_230_528)"/>
<g style="mix-blend-mode:multiply" opacity="0.1">
<g style="mix-blend-mode:multiply">
<path d="M69.8322 250.518C104.124 241.183 127.164 287.937 167.038 277.668C201.611 268.764 202.576 230.211 243.662 202.77C246.479 200.89 249.345 199.146 252.261 197.539L296.365 196.348C310.099 195.977 321.403 207.051 321.403 221.096V274.316C321.403 288.356 310.099 299.325 296.368 298.824L32.5146 289.186C45.1928 262.936 58.616 253.57 69.8322 250.518Z" fill="#97A6B7" fill-opacity="0.04"/>
</g>
</g>
<path d="M53.7418 221.493L59.755 235.25C59.8601 235.497 60.0197 235.711 60.2195 235.876C60.4194 236.04 60.6535 236.148 60.9012 236.191L74.1269 238.387C75.3476 238.589 75.834 240.299 74.9516 241.282L65.4206 251.902C65.2447 252.1 65.1139 252.34 65.0385 252.603C64.9632 252.866 64.9453 253.144 64.9864 253.415L67.2508 268.338C67.4614 269.728 66.1698 270.822 65.0628 270.19L53.0793 263.344C52.8575 263.218 52.6099 263.154 52.3594 263.159C52.109 263.164 51.8636 263.237 51.6461 263.371L39.41 270.81C38.2564 271.511 36.9071 270.456 37.1279 269.024L39.4892 253.705C39.5337 253.427 39.5159 253.142 39.4372 252.873C39.3586 252.604 39.2214 252.36 39.0373 252.161L28.9733 241.367C28.0256 240.351 28.5484 238.578 29.8567 238.369L43.7142 236.15C43.9666 236.108 44.2056 236 44.4102 235.835C44.6148 235.67 44.7787 235.453 44.8874 235.203L50.9817 221.449C51.5464 220.181 53.178 220.201 53.7418 221.493Z" fill="url(#paint23_linear_230_528)"/>
<path d="M79.8414 59.4018L64.9887 89.4921C64.7174 90.0412 64.3167 90.5161 63.8212 90.876C63.3257 91.2359 62.7501 91.47 62.1441 91.5582L28.9318 96.3849C25.8332 96.8324 24.595 100.642 26.8377 102.828L50.8708 126.255C51.3094 126.682 51.6374 127.21 51.8266 127.793C52.0158 128.375 52.0605 128.995 51.957 129.598L46.2835 162.676C45.7544 165.763 48.9938 168.116 51.7646 166.66L81.4712 151.042C82.0134 150.757 82.6166 150.608 83.2291 150.608C83.8415 150.608 84.4448 150.757 84.987 151.042L114.694 166.67C117.465 168.124 120.704 165.775 120.175 162.686L114.501 129.608C114.398 129.005 114.443 128.385 114.633 127.803C114.822 127.22 115.15 126.693 115.588 126.265L139.62 102.838C141.858 100.652 140.627 96.8447 137.528 96.395L104.315 91.5682C103.709 91.4803 103.133 91.2462 102.638 90.8863C102.142 90.5264 101.742 90.0514 101.471 89.5022L86.6168 59.4119C85.2308 56.5997 81.2274 56.5997 79.8414 59.4018Z" fill="url(#paint24_linear_230_528)"/>
<path d="M78.366 59.4019L63.5132 89.4922C63.2419 90.0413 62.8413 90.5162 62.3457 90.8761C61.8502 91.236 61.2747 91.4701 60.6686 91.5583L27.4563 96.385C24.3578 96.8324 23.1206 100.642 25.3623 102.828L49.3954 126.255C49.8339 126.682 50.1619 127.21 50.3511 127.793C50.5403 128.375 50.5851 128.995 50.4815 129.598L44.808 162.677C44.2789 165.763 47.5184 168.116 50.2891 166.66L79.9946 151.042C80.537 150.757 81.1404 150.608 81.7531 150.608C82.3657 150.608 82.9692 150.757 83.5115 151.042L113.218 166.67C115.99 168.124 119.229 165.775 118.699 162.687L113.026 129.609C112.922 129.005 112.967 128.385 113.156 127.803C113.345 127.22 113.673 126.693 114.112 126.265L138.148 102.834C140.386 100.648 139.155 96.8403 136.054 96.3906L102.842 91.5638C102.236 91.4757 101.66 91.2416 101.165 90.8817C100.669 90.5218 100.269 90.0469 99.9974 89.4978L85.1446 59.4075C83.7565 56.5998 79.7519 56.5998 78.366 59.4019Z" fill="url(#paint25_linear_230_528)"/>
<g style="mix-blend-mode:multiply" opacity="0.3">
<path style="mix-blend-mode:multiply" d="M58.3564 143.764C69.756 132.924 82.5964 133.528 87.7811 121.002C93.59 106.966 81.2205 97.1401 83.3392 79.9193C83.8526 75.748 85.2352 70.985 88.3024 65.8059L99.9951 89.4978C100.266 90.0469 100.667 90.5218 101.163 90.8817C101.658 91.2416 102.234 91.4757 102.84 91.5639L136.052 96.3906C139.151 96.8381 140.388 100.648 138.146 102.834L114.113 126.261C113.674 126.688 113.346 127.216 113.157 127.798C112.968 128.381 112.923 129 113.027 129.604L118.7 162.682C119.229 165.768 115.99 168.122 113.219 166.665L83.5137 151.048C82.9713 150.763 82.3679 150.614 81.7552 150.614C81.1426 150.614 80.5391 150.763 79.9968 151.048L50.2902 166.67C49.5676 167.053 48.7395 167.191 47.9319 167.06C47.1242 166.93 46.3812 166.54 45.8158 165.948C48.7622 155.148 53.571 148.315 58.3564 143.764Z" fill="url(#paint26_linear_230_528)"/>
</g>
<path d="M41.6065 165.499C41.6065 165.499 41.2956 164.077 44.0339 163.543C46.1805 163.125 46.7689 162.623 46.2331 162.277C45.6973 161.931 44.5026 162.297 44.5026 162.297C44.5026 162.297 45.3449 160.004 47.0284 158.567C48.7119 157.129 46.8998 157.274 45.8684 157.479C44.8371 157.685 42.2486 159.984 41.9309 160.859C41.6133 161.733 39.4879 163.627 39.4879 163.627L41.6065 165.499Z" fill="url(#paint27_linear_230_528)"/>
<path d="M40.1043 162.288L42.6547 165.055C42.6547 165.055 25.4921 176.549 54.2635 179.123L27.9765 205.831C27.9765 205.831 6.92558 181.165 40.1043 162.288Z" fill="url(#paint28_linear_230_528)"/>
<path d="M113.442 164.121C113.442 164.121 114.884 163.92 114.434 161.166C114.082 159.008 114.349 158.282 114.858 158.664C115.367 159.047 115.441 160.294 115.441 160.294C115.441 160.294 117.299 158.709 118.065 156.632C118.831 154.554 119.322 156.304 119.486 157.343C119.649 158.382 118.393 161.606 117.682 162.208C116.972 162.81 115.933 165.458 115.933 165.458L113.442 164.121Z" fill="url(#paint29_linear_230_528)"/>
<path d="M56.1293 332.678C56.1293 332.678 65.6833 337.021 65.8399 337.711C65.9965 338.402 59.6954 337.48 57.1226 337.579C54.5499 337.679 52.4346 336.919 52.6673 335.83C52.9 334.74 53.806 331.999 53.806 331.999L56.1293 332.678Z" fill="url(#paint30_linear_230_528)"/>
<path d="M56.4783 329.154L55.8977 333.456C55.8977 333.456 54.3843 333.994 53.3686 333.358L52.9346 328.64L56.4783 329.154Z" fill="url(#paint31_linear_230_528)"/>
<path d="M11.4827 329.257L10.3708 331.047C10.2167 331.293 10.1147 331.568 10.071 331.855C10.0273 332.142 10.0429 332.435 10.1169 332.716C10.505 334.199 11.2813 337.091 11.6192 337.845C12.0811 338.871 18.2636 339.481 18.2636 339.481C18.2636 339.481 18.8151 338.706 17.5309 337.769C16.2468 336.831 15.4224 336.683 14.9694 335.301C14.5163 333.918 14.2143 330.007 14.2143 330.007L11.4827 329.257Z" fill="url(#paint32_linear_230_528)"/>
<path d="M16.1091 324.728C15.7031 325.051 13.7176 331.079 13.7176 331.079C13.7176 331.079 13.0744 331.901 11.8529 330.688C10.6313 329.474 11.3003 330.144 11.3003 330.144L11.5296 324.216L16.1091 324.728Z" fill="url(#paint33_linear_230_528)"/>
<path d="M61.7357 242.727C62.2391 255.559 62.2603 269.501 61.522 284.396C60.6909 301.167 59.0197 316.668 56.9145 330.72C56.1315 330.746 55.3094 330.749 54.4536 330.72C53.8734 330.703 53.3115 330.675 52.7679 330.637C51.3762 326.934 50.1916 323.156 49.2197 319.322C48.1231 314.958 47.2975 310.53 46.7476 306.064C44.9075 291.529 47.0641 290.262 45.5708 279.489C44.2486 269.95 42.3683 269.577 40.1602 256.033C37.7653 241.337 39.5483 239.133 40.4152 238.336C44.1111 234.946 52.7824 237.253 61.7357 242.727Z" fill="url(#paint34_linear_230_528)"/>
<path style="mix-blend-mode:multiply" opacity="0.3" d="M40.4197 238.336C43.9411 235.102 51.9927 237.06 60.4974 241.996C50.7142 252.567 49.647 259.424 50.8204 263.874C52.146 268.902 56.1763 270.35 56.1606 275.849C56.1416 282.607 50.043 284.397 50.1728 291.547C50.2589 296.275 52.9379 296.227 53.5711 302.062C54.3205 308.972 50.8193 311.353 51.9524 316.466C52.4413 318.665 53.8328 321.539 57.7994 324.5C57.513 326.599 57.2199 328.678 56.9146 330.716C56.1315 330.74 55.3094 330.745 54.4536 330.716C53.8735 330.698 53.3115 330.671 52.7679 330.633C51.3764 326.931 50.1918 323.155 49.2197 319.322C48.1231 314.958 47.2975 310.53 46.7476 306.064C44.9086 291.53 47.0642 290.261 45.5708 279.489C44.2487 269.95 42.3683 269.577 40.1602 256.033C37.7697 241.337 39.5528 239.133 40.4197 238.336Z" fill="url(#paint35_linear_230_528)"/>
<path d="M55.675 242.511C38.0009 268.359 24.6585 296.916 16.1729 327.058C15.2928 327.466 14.3153 327.618 13.3529 327.495C12.1168 327.317 10.9843 326.706 10.1582 325.769C9.07123 319.005 8.82513 312.132 9.42548 305.308C9.7152 302.049 10.2275 296.625 12.3036 289.928C14.6292 282.426 16.2288 282.004 19.2624 274.067C22.4113 265.83 21.6484 263.776 24.6653 253.465C26.4791 247.288 28.7298 241.248 31.4003 235.39L55.675 242.511Z" fill="url(#paint36_linear_230_528)"/>
<path d="M58.8297 172.808C58.8297 172.808 58.5545 176.417 57.3486 179.089C56.2591 181.504 50.8787 182.876 49.7813 183.388C48.684 183.901 51.74 185.593 54.8497 186.004C57.9594 186.414 66.888 185.981 68.5313 184.849C70.1745 183.717 67.274 183.716 65.0737 182.829C62.8734 181.942 61.7179 177.549 62.1743 175.585C62.6307 173.621 58.8297 172.808 58.8297 172.808Z" fill="url(#paint37_linear_230_528)"/>
<path d="M63.3141 170.05C64.9518 167.876 64.2538 163.608 62.7929 163.06C62.3745 162.904 62.0915 163.125 57.9247 166.536C55.8553 168.23 54.8497 169.102 54.7927 170.269C54.758 170.98 55.0678 171.835 55.5399 172.429C55.7826 172.737 56.1786 173.091 57.0175 173.741C57.7614 174.317 57.7189 174.3 57.9437 174.467C58.4818 174.864 59.4829 175.501 61.1317 176.086C61.0762 175.598 61.0638 175.105 61.0948 174.614C61.1337 173.976 61.254 173.345 61.4528 172.737C61.9427 171.368 62.7862 170.755 63.3141 170.05Z" fill="url(#paint38_linear_230_528)"/>
<path d="M59.1239 175.635C59.1239 175.635 61.153 177.26 63.6262 176.176C65.8399 175.205 64.3265 170 62.4864 169.446C61.8723 169.262 60.8498 169.463 60.1429 169.97C59.7256 170.268 59.6384 170.519 58.9471 170.994C58.3084 171.432 58.0813 171.426 57.9337 171.682C57.7491 172.003 57.7536 172.622 58.7368 173.948C58.1462 173.667 57.5656 173.687 57.2603 173.994C57.1594 174.109 57.0921 174.248 57.0656 174.398C56.9594 175.094 57.7592 175.643 59.1239 175.635Z" fill="url(#paint39_linear_230_528)"/>
<path d="M21.4036 247.042C24.9193 250.226 31.0067 250.484 32.3368 250.541C38.592 250.806 39.4857 248.09 45.6738 248.354C51.8809 248.619 53.5174 251.454 57.918 250.322C58.701 250.122 61.7436 249.236 64.9797 245.006C74.1522 233.019 66.4853 219.831 75.6288 202.875C77.0069 200.319 78.2194 198.072 80.6568 195.66C88.5486 187.857 96.0722 191.41 106.015 185.146C114.173 180.008 119.649 169.681 117.281 165.027C116.208 162.917 115.279 163.195 113.837 163.025C111.416 167.132 105.423 172.14 98.5298 175.055C91.9883 177.821 86.949 176.499 76.9409 176.64C70.8233 176.725 60.323 176.873 51.9961 179.852C31.1734 187.307 23.4651 212.655 21.1854 220.15C19.1932 226.7 14.8307 241.089 21.4036 247.042Z" fill="url(#paint40_linear_230_528)"/>
<path style="mix-blend-mode:multiply" opacity="0.3" d="M38.4588 241.28C36.188 238.352 47.902 230.285 46.3292 220.873C45.0059 212.949 35.613 212.158 33.2114 204.839C32.1733 201.678 32.368 197.073 36.7842 190.223C27.1005 200.726 22.7917 214.864 21.1854 220.145C19.1931 226.696 14.8306 241.085 21.4035 247.038C24.9193 250.221 31.0067 250.48 32.3367 250.537C38.5919 250.802 39.4856 248.086 45.6737 248.35C51.8808 248.615 53.5173 251.45 57.9179 250.318C58.7009 250.117 61.7435 249.231 64.9796 245.002C65.0277 244.939 65.0691 244.876 65.1161 244.812C62.6731 242.483 59.7412 240.605 56.2422 239.823C47.6223 237.9 40.2977 243.657 38.4588 241.28Z" fill="url(#paint41_linear_230_528)"/>
<defs>
<linearGradient id="paint0_linear_230_528" x1="172.961" y1="118.267" x2="117.582" y2="-11.7298" gradientUnits="userSpaceOnUse">
<stop stop-color="#948DE3"/>
<stop offset="1" stop-color="#71EEF6"/>
</linearGradient>
<linearGradient id="paint1_linear_230_528" x1="234.652" y1="61.7285" x2="218.783" y2="188.08" gradientUnits="userSpaceOnUse">
<stop stop-color="#6165D7"/>
<stop offset="1" stop-color="#808CF9"/>
</linearGradient>
<linearGradient id="paint2_linear_230_528" x1="280.017" y1="190.58" x2="217.448" y2="174.27" gradientUnits="userSpaceOnUse">
<stop stop-color="#311944"/>
<stop offset="1" stop-color="#893976"/>
</linearGradient>
<linearGradient id="paint3_linear_230_528" x1="356.448" y1="149.472" x2="261.256" y2="150.492" gradientUnits="userSpaceOnUse">
<stop stop-color="#311944"/>
<stop offset="1" stop-color="#893976"/>
</linearGradient>
<linearGradient id="paint4_linear_230_528" x1="238.37" y1="54.4532" x2="142.223" y2="261.985" gradientUnits="userSpaceOnUse">
<stop stop-color="#FF9085"/>
<stop offset="1" stop-color="#FB6FBB"/>
</linearGradient>
<linearGradient id="paint5_linear_230_528" x1="251.744" y1="58.3567" x2="154.395" y2="268.482" gradientUnits="userSpaceOnUse">
<stop stop-color="#FF9085"/>
<stop offset="1" stop-color="#FB6FBB"/>
</linearGradient>
<linearGradient id="paint6_linear_230_528" x1="179.984" y1="72.0326" x2="77.4367" y2="144.088" gradientUnits="userSpaceOnUse">
<stop stop-color="#E38DDD"/>
<stop offset="1" stop-color="#9571F6"/>
</linearGradient>
<linearGradient id="paint7_linear_230_528" x1="173.815" y1="118.967" x2="97.5215" y2="101.363" gradientUnits="userSpaceOnUse">
<stop stop-color="#311944"/>
<stop offset="1" stop-color="#893976"/>
</linearGradient>
<linearGradient id="paint8_linear_230_528" x1="183.866" y1="47.5932" x2="121.089" y2="183.095" gradientUnits="userSpaceOnUse">
<stop stop-color="#FFC444"/>
<stop offset="1" stop-color="#F36F56"/>
</linearGradient>
<linearGradient id="paint9_linear_230_528" x1="164.265" y1="62.0489" x2="117.947" y2="162.029" gradientUnits="userSpaceOnUse">
<stop stop-color="#FFC444"/>
<stop offset="1" stop-color="#F36F56"/>
</linearGradient>
<linearGradient id="paint10_linear_230_528" x1="234.007" y1="151.916" x2="263.558" y2="213.361" gradientUnits="userSpaceOnUse">
<stop stop-color="#FFC444"/>
<stop offset="1" stop-color="#F36F56"/>
</linearGradient>
<linearGradient id="paint11_linear_230_528" x1="240.424" y1="148.83" x2="269.976" y2="210.275" gradientUnits="userSpaceOnUse">
<stop stop-color="#FFC444"/>
<stop offset="1" stop-color="#F36F56"/>
</linearGradient>
<linearGradient id="paint12_linear_230_528" x1="326.597" y1="156.004" x2="82.4971" y2="115.206" gradientUnits="userSpaceOnUse">
<stop stop-color="#FFC444"/>
<stop offset="1" stop-color="#F36F56"/>
</linearGradient>
<linearGradient id="paint13_linear_230_528" x1="238.37" y1="54.4535" x2="142.223" y2="261.985" gradientUnits="userSpaceOnUse">
<stop stop-color="#FF9085"/>
<stop offset="1" stop-color="#FB6FBB"/>
</linearGradient>
<linearGradient id="paint14_linear_230_528" x1="251.743" y1="58.3567" x2="154.395" y2="268.482" gradientUnits="userSpaceOnUse">
<stop stop-color="#FF9085"/>
<stop offset="1" stop-color="#FB6FBB"/>
</linearGradient>
<linearGradient id="paint15_linear_230_528" x1="164.017" y1="117.266" x2="93.4062" y2="98.8599" gradientUnits="userSpaceOnUse">
<stop stop-color="#311944"/>
<stop offset="1" stop-color="#893976"/>
</linearGradient>
<linearGradient id="paint16_linear_230_528" x1="329.01" y1="141.539" x2="84.9085" y2="100.74" gradientUnits="userSpaceOnUse">
<stop stop-color="#311944"/>
<stop offset="1" stop-color="#893976"/>
</linearGradient>
<linearGradient id="paint17_linear_230_528" x1="329.308" y1="141.826" x2="85.2065" y2="101.026" gradientUnits="userSpaceOnUse">
<stop stop-color="#311944"/>
<stop offset="1" stop-color="#893976"/>
</linearGradient>
<linearGradient id="paint18_linear_230_528" x1="161.93" y1="117.147" x2="108.833" y2="103.568" gradientUnits="userSpaceOnUse">
<stop stop-color="#311944"/>
<stop offset="1" stop-color="#893976"/>
</linearGradient>
<linearGradient id="paint19_linear_230_528" x1="248.731" y1="368.484" x2="115.689" y2="166.601" gradientUnits="userSpaceOnUse">
<stop stop-color="#EBEFF2"/>
<stop offset="1" stop-color="white"/>
</linearGradient>
<linearGradient id="paint20_linear_230_528" x1="204.636" y1="248.708" x2="162.672" y2="365.365" gradientUnits="userSpaceOnUse">
<stop stop-color="#FFC444"/>
<stop offset="1" stop-color="#F36F56"/>
</linearGradient>
<linearGradient id="paint21_linear_230_528" x1="156.357" y1="231.34" x2="114.394" y2="347.999" gradientUnits="userSpaceOnUse">
<stop stop-color="#FFC444"/>
<stop offset="1" stop-color="#F36F56"/>
</linearGradient>
<linearGradient id="paint22_linear_230_528" x1="111.761" y1="215.59" x2="71.8481" y2="329.507" gradientUnits="userSpaceOnUse">
<stop stop-color="#FFC444"/>
<stop offset="1" stop-color="#F36F56"/>
</linearGradient>
<linearGradient id="paint23_linear_230_528" x1="28.4878" y1="245.772" x2="75.4026" y2="245.772" gradientUnits="userSpaceOnUse">
<stop stop-color="#FFC444"/>
<stop offset="1" stop-color="#FF9682"/>
</linearGradient>
<linearGradient id="paint24_linear_230_528" x1="140.766" y1="112.202" x2="25.6923" y2="112.202" gradientUnits="userSpaceOnUse">
<stop stop-color="#311944"/>
<stop offset="1" stop-color="#893976"/>
</linearGradient>
<linearGradient id="paint25_linear_230_528" x1="47.6056" y1="52.9934" x2="161.251" y2="254.455" gradientUnits="userSpaceOnUse">
<stop stop-color="#FFC444"/>
<stop offset="1" stop-color="#F36F56"/>
</linearGradient>
<linearGradient id="paint26_linear_230_528" x1="47.6615" y1="52.9622" x2="161.307" y2="254.424" gradientUnits="userSpaceOnUse">
<stop stop-color="#FFC444"/>
<stop offset="1" stop-color="#F36F56"/>
</linearGradient>
<linearGradient id="paint27_linear_230_528" x1="44.9266" y1="164.308" x2="42.8261" y2="158.627" gradientUnits="userSpaceOnUse">
<stop stop-color="#311944"/>
<stop offset="1" stop-color="#893976"/>
</linearGradient>
<linearGradient id="paint28_linear_230_528" x1="17.078" y1="158.953" x2="37.8537" y2="187.952" gradientUnits="userSpaceOnUse">
<stop stop-color="#617BD7"/>
<stop offset="1" stop-color="#808CF9"/>
</linearGradient>
<linearGradient id="paint29_linear_230_528" x1="113.442" y1="160.56" x2="119.499" y2="160.56" gradientUnits="userSpaceOnUse">
<stop stop-color="#311944"/>
<stop offset="1" stop-color="#893976"/>
</linearGradient>
<linearGradient id="paint30_linear_230_528" x1="60.7581" y1="317.612" x2="58.3844" y2="347.821" gradientUnits="userSpaceOnUse">
<stop stop-color="#192244"/>
<stop offset="1" stop-color="#4E39A0"/>
</linearGradient>
<linearGradient id="paint31_linear_230_528" x1="54.6304" y1="334.431" x2="55.0621" y2="303.143" gradientUnits="userSpaceOnUse">
<stop stop-color="#FFC444"/>
<stop offset="1" stop-color="#F36F56"/>
</linearGradient>
<linearGradient id="paint32_linear_230_528" x1="15.9034" y1="314.088" x2="13.5297" y2="344.297" gradientUnits="userSpaceOnUse">
<stop stop-color="#192044"/>
<stop offset="1" stop-color="#6039A0"/>
</linearGradient>
<linearGradient id="paint33_linear_230_528" x1="13.5229" y1="333.864" x2="13.9547" y2="302.575" gradientUnits="userSpaceOnUse">
<stop stop-color="#FFC444"/>
<stop offset="1" stop-color="#F36F56"/>
</linearGradient>
<linearGradient id="paint34_linear_230_528" x1="62.0981" y1="283.746" x2="38.9644" y2="283.746" gradientUnits="userSpaceOnUse">
<stop stop-color="#444B8C"/>
<stop offset="1" stop-color="#3E4177"/>
</linearGradient>
<linearGradient id="paint35_linear_230_528" x1="62.0982" y1="283.746" x2="38.9644" y2="283.746" gradientUnits="userSpaceOnUse">
<stop stop-color="#444B8C"/>
<stop offset="1" stop-color="#3E4177"/>
</linearGradient>
<linearGradient id="paint36_linear_230_528" x1="55.675" y1="281.465" x2="9.10557" y2="281.465" gradientUnits="userSpaceOnUse">
<stop stop-color="#444B8C"/>
<stop offset="1" stop-color="#3E4177"/>
</linearGradient>
<linearGradient id="paint37_linear_230_528" x1="58.4739" y1="177.642" x2="61.0982" y2="198.194" gradientUnits="userSpaceOnUse">
<stop stop-color="#311944"/>
<stop offset="1" stop-color="#893976"/>
</linearGradient>
<linearGradient id="paint38_linear_230_528" x1="59.9606" y1="173.632" x2="58.795" y2="159.638" gradientUnits="userSpaceOnUse">
<stop stop-color="#26264F"/>
<stop offset="1" stop-color="#444B8C"/>
</linearGradient>
<linearGradient id="paint39_linear_230_528" x1="52.7076" y1="164.541" x2="63.4942" y2="175.911" gradientUnits="userSpaceOnUse">
<stop stop-color="#311944"/>
<stop offset="1" stop-color="#893976"/>
</linearGradient>
<linearGradient id="paint40_linear_230_528" x1="75.2551" y1="273.745" x2="65.4394" y2="179.335" gradientUnits="userSpaceOnUse">
<stop stop-color="#6165D7"/>
<stop offset="1" stop-color="#80B0F9"/>
</linearGradient>
<linearGradient id="paint41_linear_230_528" x1="45.2129" y1="277.114" x2="35.301" y2="181.783" gradientUnits="userSpaceOnUse">
<stop stop-color="#AA80F9"/>
<stop offset="1" stop-color="#6165D7"/>
</linearGradient>
</defs>
</svg>
