<svg width="11" height="21" viewBox="0 0 11 21" fill="none" xmlns="http://www.w3.org/2000/svg">
<path d="M0.772657 1.68701C0.590454 1.49419 0.492307 1.2369 0.499808 0.971721C0.50731 0.706545 0.619845 0.455209 0.812657 0.273005C1.00547 0.0908017 1.26277 -0.00734514 1.52794 0.000156306C1.79312 0.00765776 2.04445 0.120193 2.22666 0.313005L10.7267 9.31301C10.9022 9.49867 11 9.74449 11 10C11 10.2555 10.9022 10.5013 10.7267 10.687L2.22666 19.688C2.13704 19.7856 2.02892 19.8643 1.90859 19.9198C1.78827 19.9752 1.65813 20.0062 1.52573 20.0109C1.39334 20.0156 1.26133 19.9939 1.13737 19.9472C1.01341 19.9004 0.899981 19.8295 0.80366 19.7386C0.70734 19.6476 0.630052 19.5384 0.576285 19.4173C0.522519 19.2963 0.493347 19.1657 0.490462 19.0333C0.487578 18.9008 0.511039 18.7691 0.559483 18.6458C0.607927 18.5225 0.680388 18.4101 0.772657 18.315L8.62466 10L0.772657 1.68701V1.68701Z" fill="#FED33D"/>
</svg>
