<svg width="80" height="80" viewBox="0 0 80 80" fill="none" xmlns="http://www.w3.org/2000/svg">
<path d="M0 40C0 29.3913 4.21427 19.2172 11.7157 11.7157C19.2172 4.21427 29.3913 0 40 0C50.6087 0 60.7828 4.21427 68.2843 11.7157C75.7857 19.2172 80 29.3913 80 40C80 50.6087 75.7857 60.7828 68.2843 68.2843C60.7828 75.7857 50.6087 80 40 80C29.3913 80 19.2172 75.7857 11.7157 68.2843C4.21427 60.7828 0 50.6087 0 40ZM30 29.165V50.835C29.9996 51.4935 30.1725 52.1404 30.5015 52.7108C30.8305 53.2812 31.3038 53.755 31.874 54.0844C32.4441 54.4138 33.0909 54.5873 33.7494 54.5874C34.4079 54.5875 35.0548 54.4142 35.625 54.085L56.25 42.165C56.63 41.9456 56.9456 41.63 57.165 41.2499C57.3844 40.8699 57.4999 40.4388 57.4999 40C57.4999 39.5612 57.3844 39.1301 57.165 38.7501C56.9456 38.37 56.63 38.0544 56.25 37.835L35.625 25.92C35.0548 25.5908 34.4079 25.4175 33.7494 25.4176C33.0909 25.4177 32.4441 25.5912 31.874 25.9206C31.3038 26.25 30.8305 26.7237 30.5015 27.2942C30.1725 27.8646 29.9996 28.5115 30 29.17V29.165Z" fill="white"/>
</svg>
