<svg width="11" height="21" viewBox="0 0 11 21" fill="none" xmlns="http://www.w3.org/2000/svg">
<path d="M10.2273 1.68701C10.4095 1.49419 10.5077 1.2369 10.5002 0.971721C10.4927 0.706545 10.3802 0.455209 10.1873 0.273005C9.99453 0.0908017 9.73723 -0.00734514 9.47206 0.000156306C9.20688 0.00765776 8.95555 0.120193 8.77334 0.313005L0.273343 9.31301C0.0978063 9.49867 0 9.74449 0 10C0 10.2555 0.0978063 10.5013 0.273343 10.687L8.77334 19.688C8.86296 19.7856 8.97108 19.8643 9.09141 19.9198C9.21173 19.9752 9.34187 20.0062 9.47427 20.0109C9.60666 20.0156 9.73867 19.9939 9.86263 19.9472C9.98659 19.9004 10.1 19.8295 10.1963 19.7386C10.2927 19.6476 10.3699 19.5384 10.4237 19.4173C10.4775 19.2963 10.5067 19.1657 10.5095 19.0333C10.5124 18.9008 10.489 18.7691 10.4405 18.6458C10.3921 18.5225 10.3196 18.4101 10.2273 18.315L2.37534 10L10.2273 1.68701V1.68701Z" fill="#FED33D"/>
</svg>
