<svg width="26" height="26" viewBox="0 0 26 26" fill="none" xmlns="http://www.w3.org/2000/svg">
<path d="M3.37496 1.01839C3.06062 0.714793 2.63962 0.546803 2.20262 0.5506C1.76563 0.554397 1.34761 0.729679 1.0386 1.03869C0.729582 1.34771 0.5543 1.76573 0.550502 2.20272C0.546705 2.63972 0.714695 3.06072 1.01829 3.37506L10.6433 13.0001L1.01663 22.6251C0.857442 22.7788 0.730471 22.9627 0.643123 23.1661C0.555775 23.3694 0.509798 23.5881 0.507875 23.8094C0.505952 24.0307 0.548122 24.2502 0.631923 24.455C0.715725 24.6598 0.83948 24.8459 0.995968 25.0024C1.15246 25.1589 1.33854 25.2826 1.54337 25.3664C1.7482 25.4502 1.96766 25.4924 2.18896 25.4905C2.41026 25.4886 2.62896 25.4426 2.8323 25.3552C3.03564 25.2679 3.21955 25.1409 3.37329 24.9817L13 15.3567L22.625 24.9817C22.9393 25.2853 23.3603 25.4533 23.7973 25.4495C24.2343 25.4457 24.6523 25.2704 24.9613 24.9614C25.2703 24.6524 25.4456 24.2344 25.4494 23.7974C25.4532 23.3604 25.2852 22.9394 24.9816 22.6251L15.3566 13.0001L24.9816 3.37506C25.2852 3.06072 25.4532 2.63972 25.4494 2.20272C25.4456 1.76573 25.2703 1.34771 24.9613 1.03869C24.6523 0.729679 24.2343 0.554397 23.7973 0.5506C23.3603 0.546803 22.9393 0.714793 22.625 1.01839L13 10.6434L3.37496 1.01672V1.01839Z" fill="#B4B4B4"/>
</svg>
